<svg xmlns="http://www.w3.org/2000/svg" xmlns:xlink="http://www.w3.org/1999/xlink" width="303.617" height="285.917" viewBox="0 0 303.617 285.917">
  <defs>
    <clipPath id="clip-path">
      <path d="M387.506,330.673c-1.012-1.547-3.987-.3-3.987-.3.238,14.936-6.01,16.662-8.866,12.556a64.833,64.833,0,0,0-8.152-8.866c.059,1.547,5.713,16.007,5.713,16.007C391.492,361.319,387.506,330.673,387.506,330.673Z" transform="translate(-366.5 -329.899)"/>
    </clipPath>
  </defs>
  <g>
    <g>
      <g>
        <path d="M234.179,119.505c-23.921,42.13-138.827,28.325-126.688,84.558,12.2,56.233,32.847,48.735,23.564,83.963s-20.589,47.069,27.968,82.535,87.95,17.911,119.845-.833,83.963,20.47,115.144-23.148c31.122-43.618-33.918-44.927,9.7-129.128S258.1,77.315,234.179,119.505Z" transform="translate(-106.595 -105.112)" fill="#e5f4ff"/>
      </g>
    </g>
  </g>
  <g transform="translate(39.085 178.441)">
    <g>
      <g>
        <path d="M175.207,405.231c-4.82,3.213,2.023,8.569,10.414,17.435,0,0-12.734-6.546-13.329-1.547s20.053,10.592,20.053,10.592l7.8.476C200.14,432.128,180.027,401.958,175.207,405.231Z" transform="translate(-172.279 -404.983)" fill="#ffe3ca"/>
      </g>
    </g>
  </g>
  <g transform="translate(42.794 182.676)">
    <g>
      <g>
        <path d="M180.825,412.1c-.655.3.119.833.119.833l13.151,12.972-.3,4.7-15.114-5.117c-.3.119-.119.417-.119.417l16.007,5.594,1.131-5Z" transform="translate(-178.511 -412.1)" fill="#efcbac"/>
      </g>
    </g>
  </g>
  <g transform="translate(44.156 133.167)">
    <g>
      <g>
        <path d="M200.675,358.772c-2.737,1.9-6.962,13.091-6.962,13.091-1.607-2.618-2.5-12.794-2.5-12.794,7.081-2.975,7.141-12.139,7.141-12.139-3.63,1.19-7.855,9.7-7.855,9.7l-.119-6.427c4.7-4.106,3.273-10.533,3.273-10.533-2.023.3-3.868,9.045-3.868,9.045-.238-1.19.3-9.4.3-9.4,2.44-4.879-1.428-10.414-1.428-10.414-2.559,1.369.714,9.878.714,9.878l-.417,6.843-3.451-7.2c-1.726,5.415,4.165,11.247,4.165,11.247l.3,7.379-7.438-10.057c-1.785,10.057,7.855,12.556,7.855,12.556-.357.6,2.2,12.853,2.2,12.853-1.488-2.083-11.782-5.772-11.782-5.772,1.369,7.141,12.437,7.617,12.437,7.617l1.071,2.737,1.25-.178c-1.428-2.261-.833-3.094-.833-3.094A15.792,15.792,0,0,0,200.675,358.772Z" transform="translate(-180.8 -328.9)" fill="#ffe3ca"/>
      </g>
    </g>
  </g>
  <g transform="translate(234.541 176.13)">
    <g>
      <g>
        <path d="M527.852,401.1c-26.956,12.556-21.839,25.349-21.839,25.349s-14.579,6.724,4.76,3.808S527.852,401.1,527.852,401.1Z" transform="translate(-500.744 -401.1)" fill="#ffe3ca"/>
      </g>
    </g>
  </g>
  <g transform="translate(241.462 182.77)">
    <g>
      <g>
        <path d="M527.325,419.007c-.654.357-2.678.536-3.868,1.131,3.035-4.106,5.534-7.736,5.534-7.736-.774-.536-1.131.6-1.131.6-1.012,1.19-2.142,2.678-3.392,4.225-.179-.833-.714-1.845-.774-2.321-.059-.655-.357-.238-.357-.238-.238.714.417,2.142.833,2.916-1.309,1.726-2.678,3.511-3.987,5.3-.179-1.369-1.071-3.094-1.19-3.868-.06-1.012-.536-.417-.536-.417-.417,1.19.714,3.63,1.309,4.76-1.666,2.261-3.213,4.344-4.344,5.891-.536-1.666-2.321-5.177-2.737-5.355s-.3.417-.3.417c.119,1.845,2.083,4.284,2.8,5.177-1.071,1.488-1.726,2.38-1.726,2.38.833-.357,2.678-2.38,4.76-4.939,1.012.06,4.4.06,6.01-1.071,0,0,.536-.3.119-.476a21.213,21.213,0,0,0-5.891,1.25c1.428-1.845,3.035-3.868,4.522-5.891,1.071-.119,4.106-.476,4.939-1.488C527.92,419.245,528.218,418.531,527.325,419.007Z" transform="translate(-512.374 -412.258)" fill="#efcbac"/>
      </g>
    </g>
  </g>
  <g transform="translate(233.52 121.028)">
    <g>
      <g>
        <path d="M512.995,345.334s12.556-.3,13.151-13.032l-11.9,10.116,2.44-8.866s8.866-5.415,8.212-12.5l-6.248,7.736,1.369-8.45s6.367-9.461,3.63-11.842c0,0-6.308,5.594-4.7,12.258,0,0-1.607,10.175-2.261,11.544,0,0,.119-11.187-2.2-12.139,0,0-3.57,7.438,1.071,13.805l-1.964,7.8s-2.856-11.6-6.962-14.1c0,0-2.5,11.247,5.356,16.9,0,0-3.927,12.139-6.665,14.876,0,0-2.083-14.817-4.939-17.971,0,0-4.641,9.759,3.273,19.875,0,0,.536,1.131-1.9,3.511l1.488.6,2.083-2.975s13.686,2.618,17.376-5.713c0,0-13.627,1.547-16.067,3.63C506.687,360.389,513.233,346.167,512.995,345.334Z" transform="translate(-499.027 -308.5)" fill="#ffe3ca"/>
      </g>
    </g>
  </g>
  <g transform="translate(58.08 71.103)">
    <g>
      <g>
        <path d="M386.764,224.6H207.056a2.82,2.82,0,0,0-2.856,2.856V365.569a2.82,2.82,0,0,0,2.856,2.856H386.764a2.82,2.82,0,0,0,2.856-2.856V227.456A2.9,2.9,0,0,0,386.764,224.6Z" transform="translate(-204.2 -224.6)" fill="#cce9ff"/>
      </g>
    </g>
  </g>
  <g transform="translate(58.08 71.103)">
    <g>
      <g>
        <path d="M386.764,224.6H207.056a2.82,2.82,0,0,0-2.856,2.856v16.721H389.561V227.456A2.806,2.806,0,0,0,386.764,224.6Z" transform="translate(-204.2 -224.6)" fill="#2a94f4"/>
      </g>
    </g>
  </g>
  <g transform="translate(126.929 115.553)">
    <g>
      <g>
        <path d="M347.332,299.3a27.432,27.432,0,1,0,27.432,27.432A27.44,27.44,0,0,0,347.332,299.3Zm0,44.094a16.721,16.721,0,1,1,16.721-16.721A16.736,16.736,0,0,1,347.332,343.394Z" transform="translate(-319.9 -299.3)" fill="#2a94f4"/>
      </g>
    </g>
  </g>
  <g transform="translate(168.922 123.66)">
    <g>
      <g>
        <path d="M395.129,313.981c-2.737-1.9-4.344-.655-4.344-.655-1.19,3.273,1.309,6.784,2.142,7.736a4.366,4.366,0,0,1,.655,2.8c.119,1.131,2.618.179,2.618.179C397.212,316.182,395.129,313.981,395.129,313.981Z" transform="translate(-390.47 -312.923)" fill="#fcd2b1"/>
      </g>
    </g>
  </g>
  <g transform="translate(154.658 133.761)">
    <g clip-path="url(#clip-path)">
      <rect width="21.422" height="22.85" transform="translate(-0.012 -0.083)" fill="none"/>
    </g>
  </g>
  <g transform="translate(138.949 135.428)">
    <g>
      <g>
        <path d="M352,333.474l-4.046-.774s-7.557,1.25-7.676,5.237.833,22.791-.178,25.052a26.762,26.762,0,0,0,23.564,3.57S365.509,336.984,352,333.474Z" transform="translate(-340.1 -332.7)" fill="#ffbe55"/>
      </g>
    </g>
  </g>
  <g transform="translate(146.506 116.75)">
    <g>
      <g>
        <path d="M352.8,311.182v8.866h0v.06a10.188,10.188,0,0,0,5.713,4.284,5.089,5.089,0,0,0-.417-3.273,18.559,18.559,0,0,1,.179-5.475c8.152,6.189,9.342-12.139,9.342-12.139C365,295.711,352.8,311.182,352.8,311.182Z" transform="translate(-352.8 -301.311)" fill="#fcd2b1"/>
      </g>
    </g>
  </g>
  <g transform="translate(159.214 120.968)">
    <g>
      <g>
        <path d="M391.5,308.4l-16.6,1.012s-1.666,1.607,0,4.165l17.078,1.25S394.89,310.542,391.5,308.4Z" transform="translate(-374.156 -308.4)" fill="#0b4870"/>
      </g>
    </g>
  </g>
  <g transform="translate(157.548 121.98)">
    <g>
      <g>
        <path d="M388.7,310.1l-16.6,1.012s-1.666,1.607,0,4.165l17.078,1.25C389.115,316.527,392.09,312.242,388.7,310.1Z" transform="translate(-371.356 -310.1)" fill="#0e538c"/>
      </g>
    </g>
  </g>
  <g transform="translate(164.161 123.66)">
    <g>
      <g>
        <path d="M387.129,313.981c-2.737-1.9-4.344-.655-4.344-.655-1.19,3.273,1.309,6.784,2.142,7.736a4.366,4.366,0,0,1,.655,2.8c.119,1.131,2.618.179,2.618.179C389.212,316.182,387.129,313.981,387.129,313.981Z" transform="translate(-382.47 -312.923)" fill="#fcd2b1"/>
      </g>
    </g>
  </g>
  <g transform="translate(139.151 133.815)">
    <g>
      <g>
        <path d="M372.311,330.412c-1.428-.952-3.987,0-3.987,0s-.3,2.737-.714,10.771-8.985,8.39-11.6,6.843c-2.678-1.547-3.987-5.236-6.01-9.937-2.023-4.76-6.129-4.879-6.129-4.879-4.641.417-4.82,6.962,1.012,15.353s17.554,6.546,17.554,6.546C378.5,353.976,372.311,330.412,372.311,330.412Z" transform="translate(-340.439 -329.989)" fill="#e1a545"/>
      </g>
    </g>
  </g>
  <g transform="translate(144.489 109.77)">
    <g>
      <g>
        <path d="M370.291,291.556c-.476-.952-1.726-3.451-11.723-.774,0,0-6.189.774-6.07,6.01,0,0-6.07,1.845-1.19,11.247,0,0,.655.238,2.38-2.856s6.07-2.142,7.26-5.594C361.008,299.589,371.838,297.15,370.291,291.556Z" transform="translate(-349.41 -289.581)" fill="#0b4870"/>
      </g>
    </g>
  </g>
  <g transform="translate(175.366 120.968)">
    <g>
      <g>
        <path d="M402.728,308.4c-.774,0-1.428,1.428-1.428,3.213s.655,3.213,1.428,3.213,1.428-1.428,1.428-3.213S403.5,308.4,402.728,308.4Z" transform="translate(-401.3 -308.4)" fill="#0b4870"/>
      </g>
    </g>
  </g>
  <g transform="translate(175.902 121.504)">
    <g>
      <g>
        <ellipse cx="1.012" cy="2.737" rx="1.012" ry="2.737" fill="#f7f7f7"/>
      </g>
    </g>
  </g>
  <g transform="translate(173.522 121.98)">
    <g>
      <g>
        <ellipse cx="1.428" cy="3.213" rx="1.428" ry="3.213" fill="#0b4870"/>
      </g>
    </g>
  </g>
  <g transform="translate(174.057 122.516)">
    <g>
      <g>
        <path d="M400.112,311c-.536,0-1.012,1.19-1.012,2.737,0,1.488.476,2.737,1.012,2.737s1.012-1.19,1.012-2.737C401.123,312.25,400.647,311,400.112,311Z" transform="translate(-399.1 -311)" fill="#f7f7f7"/>
      </g>
    </g>
  </g>
  <g transform="translate(71.053 115.613)">
    <g>
      <path d="M271.224,331.771V342.78H264.8v11.6H253.075v-11.6H226v-3.749L252.421,299.4H264.8v32.371Zm-18.268-15.65-9.818,15.65h9.937v-15.65Z" transform="translate(-226 -299.4)" fill="#2a94f4"/>
    </g>
  </g>
  <g transform="translate(185.185 115.613)">
    <g>
      <path d="M463.024,331.771V342.78H456.6v11.6H444.875v-11.6H417.8v-3.749L444.221,299.4H456.6v32.371Zm-18.268-15.65-9.818,15.65h9.938v-15.65Z" transform="translate(-417.8 -299.4)" fill="#2a94f4"/>
    </g>
  </g>
  <g transform="translate(67.006 78.838)">
    <g>
      <g>
        <path d="M221.818,237.6a2.446,2.446,0,1,0,2.618,2.44A2.531,2.531,0,0,0,221.818,237.6Zm8.747,0a2.446,2.446,0,1,0,2.618,2.44A2.5,2.5,0,0,0,230.566,237.6Zm8.807,0a2.446,2.446,0,1,0,2.618,2.44A2.5,2.5,0,0,0,239.372,237.6Zm143.469,0H253.356a2.44,2.44,0,1,0,0,4.879H382.841a2.413,2.413,0,0,0,2.44-2.44A2.451,2.451,0,0,0,382.841,237.6Z" transform="translate(-219.2 -237.6)" fill="#cce9ff"/>
      </g>
    </g>
  </g>
</svg>
