<svg id="transfer-svgrepo-com" xmlns="http://www.w3.org/2000/svg" width="14.501" height="15" viewBox="0 0 14.501 15">
	<g id="Group_2451" data-name="Group 2451" transform="translate(0 0)">
		<path id="Path_954" data-name="Path 954" d="M22.741,278.975a.377.377,0,0,0-.377-.377H9.526l2.257-2.257a.375.375,0,1,0-.53-.53l-2.9,2.9a.374.374,0,0,0,0,.53l2.9,2.9a.376.376,0,1,0,.534-.53l-2.257-2.257H22.37A.373.373,0,0,0,22.741,278.975Z" transform="translate(-8.241 -267.246)" fill="#fff"/>
		<path id="Path_955" data-name="Path 955" d="M22.534,3,19.636.11a.375.375,0,0,0-.53.53L21.363,2.9H8.521a.377.377,0,1,0,0,.754H21.363L19.106,5.9a.376.376,0,0,0,.534.53l2.9-2.9A.377.377,0,0,0,22.534,3Z" transform="translate(-8.144 0)" fill="#fff"/>
	</g>
</svg>
