<svg xmlns="http://www.w3.org/2000/svg" xmlns:xlink="http://www.w3.org/1999/xlink" width="120" height="120" viewBox="0 0 120 120">
  <defs>
    <linearGradient id="card-linear-gradient" x1="0.5" x2="0.5" y2="1" gradientUnits="objectBoundingBox">
      <stop offset="0" stop-color="#2a5298"/>
      <stop offset="1" stop-color="#8e2de2"/>
    </linearGradient>
  </defs>
  <g transform="translate(-667 -373)">
    <rect width="120" height="120" rx="10" transform="translate(667 373)" fill="rgba(0,18,114,0.03)"/>
    <g transform="translate(698 404)">
      <path d="M35,14v4.687A1.313,1.313,0,0,1,33.687,20H24.312A1.313,1.313,0,0,1,23,18.687V14H3.678A3.678,3.678,0,0,0,0,17.678V50.322A3.678,3.678,0,0,0,3.678,54H54.322A3.678,3.678,0,0,0,58,50.322V17.678A3.678,3.678,0,0,0,54.322,14Z" fill="#e7eced"/>
      <path d="M33.687,4H24.312A1.313,1.313,0,0,0,23,5.313V18.688A1.313,1.313,0,0,0,24.313,20h9.375A1.313,1.313,0,0,0,35,18.687V5.313A1.313,1.313,0,0,0,33.687,4ZM29,13a3,3,0,1,1,3-3A3,3,0,0,1,29,13Z" fill="#ad5389"/>
      <path d="M22.186,42.156l-3.767-1.924A.77.77,0,0,1,18,39.547V38.394a6.328,6.328,0,0,0,3.585-4.475A2,2,0,0,0,23,32.017v-1a2,2,0,0,0-1.078-1.763C21.481,25.493,19,23.971,15,23.971c-.189,0-.375.007-.557.022a6,6,0,0,1-3.862-.909,5.01,5.01,0,0,1-1.143-1.006.2.2,0,0,0-.357.145c.04.35.1.758.188,1.2.33,1.66.133,1.418-.509,2.984a10.33,10.33,0,0,0-.69,2.845A2,2,0,0,0,7,31.017v1a2,2,0,0,0,1.415,1.9A6.328,6.328,0,0,0,12,38.394v1.145a.769.769,0,0,1-.429.69L7.71,42.13A3.281,3.281,0,0,0,6,45.01v1.325c0,1.13,4.029,1.682,9,1.682s9-.552,9-1.682V45.09A3.281,3.281,0,0,0,22.186,42.156Z" fill="url(#card-linear-gradient)"/>
      <g>
        <path d="M51.29,43.29A1.045,1.045,0,0,0,51,44a1.007,1.007,0,0,0,.29.71,1,1,0,1,0,0-1.42Z" fill="#afb6bb"/>
        <path d="M30,28.018H40a1,1,0,0,0,0-2H30a1,1,0,0,0,0,2Z" fill="#afb6bb"/>
        <path d="M31,43.018H30a1,1,0,0,0,0,2h1a1,1,0,1,0,0-2Z" fill="#afb6bb"/>
        <path d="M37,43.018H35a1,1,0,0,0,0,2h2a1,1,0,0,0,0-2Z" fill="#afb6bb"/>
        <path d="M42,43.018H41a1,1,0,0,0,0,2h1a1,1,0,0,0,0-2Z" fill="#afb6bb"/>
        <path d="M48,43.018H46a1,1,0,0,0,0,2h2a1,1,0,0,0,0-2Z" fill="#afb6bb"/>
        <path d="M30,34.018H52a1,1,0,0,0,0-2H30a1,1,0,0,0,0,2Z" fill="#afb6bb"/>
        <path d="M52,38.018H30a1,1,0,0,0,0,2H52a1,1,0,0,0,0-2Z" fill="#afb6bb"/>
      </g>
    </g>
  </g>
</svg>
