<svg xmlns="http://www.w3.org/2000/svg" viewBox="0 0 24 24"><path d="M10.53,9.76V6.6h.85a.52.52,0,0,0,0-1h-.85V5.1a.52.52,0,0,0-1,0h0v.52a2.59,2.59,0,0,0,0,5.07v3.16h-1a.52.52,0,1,0,0,1h1v.47a.52.52,0,0,0,1,0v-.52a2.59,2.59,0,0,0,0-5.07ZM8.46,8.16a1.55,1.55,0,0,1,1-1.47V9.62a1.54,1.54,0,0,1-1-1.46Zm2.07,5.61V10.83a1.55,1.55,0,0,1,1,2,1.57,1.57,0,0,1-1,1Z" fill="currentColor"/><path d="M23.67,19.85l-4.19-4.19.76-.76a1.2,1.2,0,0,0,.39-1.23,1.12,1.12,0,0,0-1-.68,10,10,0,1,0-6.4,6.73,1,1,0,0,0,.94.75,1.32,1.32,0,0,0,.92-.44l.76-.77,4.2,4.2a1.11,1.11,0,0,0,1.58,0l2-2a1.12,1.12,0,0,0,0-1.59ZM1,10.23a9,9,0,1,1,17.59,2.64l-1.71-.17a7.33,7.33,0,1,0-4,4.23l.18,1.74A9,9,0,0,1,1,10.23Zm12,2.71a1.56,1.56,0,0,0-.38,1.24l.17,1.67a6.28,6.28,0,1,1,3-3.26l-1.45-.14h-.19a1.52,1.52,0,0,0-1.16.5Zm1.18,6.51-.54-5.38a.51.51,0,0,1,.6-.59l5.37.55L18.38,15.3a.52.52,0,0,0,0,.73h0l4.56,4.56a.09.09,0,0,1,0,.13l-2,2a.09.09,0,0,1-.13,0l-4.56-4.56a.51.51,0,0,0-.72,0h0Z" fill="currentColor"/></svg>