<svg xmlns="http://www.w3.org/2000/svg" width="21.798" height="21.41" viewBox="0 0 21.798 21.41">
  <path id="Path_971" data-name="Path 971" d="M154.574,98.547V95.672h.767a.467.467,0,1,0,0-.935h-.767v-.423a.467.467,0,0,0-.935,0v.47a2.349,2.349,0,0,0,0,4.6v2.875h-.888a.467.467,0,0,0,0,.935h.888v.423a.467.467,0,0,0,.935,0v-.47a2.349,2.349,0,0,0,0-4.6Zm-1.881-1.461a1.416,1.416,0,0,1,.947-1.334V98.42A1.416,1.416,0,0,1,152.693,97.086Zm1.881,5.1V99.514a1.414,1.414,0,0,1,0,2.669Z" transform="translate(-145.004 -89.865)" fill="#004281"/>
  <path id="Path_972" data-name="Path 972" d="M21.5,22.2,17.691,18.4l.695-.695a1.074,1.074,0,0,0,.355-1.113,1.037,1.037,0,0,0-.884-.625,9.1,9.1,0,1,0-5.807,6.114.9.9,0,0,0,.846.683,1.183,1.183,0,0,0,.835-.4l.695-.695,3.809,3.809a1.018,1.018,0,0,0,1.439,0L21.5,23.643A1.019,1.019,0,0,0,21.5,22.2ZM.935,13.462a8.168,8.168,0,1,1,15.976,2.4l-1.553-.157a6.647,6.647,0,1,0-3.6,3.845l.159,1.577A8.171,8.171,0,0,1,.935,13.462Zm10.922,2.461a1.436,1.436,0,0,0-.35,1.125l.153,1.52a5.7,5.7,0,1,1,2.735-2.957l-1.318-.133c-.055-.006-.11-.008-.164-.008A1.4,1.4,0,0,0,11.857,15.924Zm1.069,5.919-.489-4.888a.515.515,0,0,1,.113-.4.5.5,0,0,1,.433-.142l4.877.5-1.16,1.16a.467.467,0,0,0,0,.661l4.139,4.139a.083.083,0,0,1,0,.117l-1.828,1.828a.083.083,0,0,1-.117,0l-4.139-4.139a.467.467,0,0,0-.661,0Z" transform="translate(0 -4.36)" fill="#004281"/>
</svg>