<svg xmlns="http://www.w3.org/2000/svg" width="207.777" height="180" viewBox="0 0 207.777 180">
  <g id="Group_1519" data-name="Group 1519" transform="translate(0 3.729)">
    <path id="Path_787" data-name="Path 787" d="M519.17,646.735l2.269-7.391a24.944,24.944,0,0,0-9.971-6.68c3.73,6.18.116,14.241,1.622,21.3a15,15,0,0,0,8.037,10.225l3.444,4.267a25.143,25.143,0,0,0,1.848-20.971,24.284,24.284,0,0,0-2.812-5.4C521.56,644.486,519.17,646.735,519.17,646.735Z" transform="translate(-432.741 -493.948)" fill="#f2f2f2"/>
    <path id="Path_788" data-name="Path 788" d="M461.5,662.013l-1.265-7.627a24.942,24.942,0,0,0-11.9-1.532c6.095,3.867,6.455,12.694,10.951,18.341a15,15,0,0,0,11.753,5.568l4.985,2.283a25.142,25.142,0,0,0-7.7-19.594,24.286,24.286,0,0,0-4.927-3.584C462.631,658.934,461.5,662.013,461.5,662.013Z" transform="translate(-387.545 -508.282)" fill="#f2f2f2"/>
    <path id="Path_789" data-name="Path 789" d="M508.545,582.776h-3.5l-1.663-13.483h5.159Z" transform="translate(-360.321 -410.165)" fill="#ffb6b6"/>
    <path id="Path_790" data-name="Path 790" d="M730.748,748.506H719.477v-.143a4.387,4.387,0,0,1,4.387-4.387h0l2.059-1.562,3.841,1.562h.984Z" transform="translate(-581.632 -572.507)" fill="#2f2e41"/>
    <path id="Path_791" data-name="Path 791" d="M686.517,548.719l-2.383,2.557-11-7.976,3.518-3.774Z" transform="translate(-481.827 -388.858)" fill="#ffb6b6"/>
    <path id="Path_792" data-name="Path 792" d="M942.405,705.12l-7.685,8.245-.1-.1a4.387,4.387,0,0,1-.218-6.2h0l.261-2.571,3.762-1.745.671-.72Z" transform="translate(-734.629 -543.602)" fill="#2f2e41"/>
    <path id="Path_793" data-name="Path 793" d="M781.971,571.022l-3.695,7.727-22.688-15.022-3.3-4.5-10.822-14.745-4.4,6.98-3.061,7.3h0a8.044,8.044,0,0,0-3.6,5.87l-.14,1.292,1.934,17.388-7.352,2.257-4.222-23.359L722,557.15l1.421-7.105,7.155-22.452h19.145l10.981,23.374.8,4.763,3.114,3.573Z" transform="translate(-582.453 -418.739)" fill="#2f2e41"/>
    <path id="Path_794" data-name="Path 794" d="M762.7,398.341l3.223,2.454,3.887,1.194s1.607,22.6,3.055,24.05.142,1.487.433,3.368,1,5.736,1,5.736c-9.773,5.173-18.2,5.312-24.966-.742a1.686,1.686,0,0,1,.92-1.9c1.26-.668-1.161-3.788-.132-4.309s-.418-5.046-.418-5.046l.95-9.44-.75-1.509,1.831-9.233,3.177-1.16,1.269-3.058Z" transform="translate(-602.969 -326.222)" fill="#3f3d56"/>
    <path id="Path_795" data-name="Path 795" d="M803.583,510.239a2.794,2.794,0,0,1,3.185-2.865l4.542-8.829,2.531,4.5-4.7,7.694a2.809,2.809,0,0,1-5.557-.5Z" transform="translate(-641.834 -397.948)" fill="#ffb6b6"/>
    <path id="Path_796" data-name="Path 796" d="M817.363,445.44l9.742-15.1-.032-.069c-.037-.08-2.243-4.844-4.38-9.208-.329-.672-.657-1.335-.975-1.969q-.206-.411-.405-.8c-.9-1.77-1.682-3.233-2.15-3.928a8.247,8.247,0,0,0-4.37-3.315l-.045-.012-.043.018a4.185,4.185,0,0,0-2.491,4.6,29.641,29.641,0,0,0,5.5,12.435l1.579,2.082L813.8,442.107Z" transform="translate(-647.964 -335.309)" fill="#3f3d56"/>
    <path id="Path_797" data-name="Path 797" d="M700.188,325.982a2.794,2.794,0,0,1-.67,4.231l2.031,9.718-4.8-1.9-1.193-8.938a2.809,2.809,0,0,1,4.63-3.113Z" transform="translate(-564.29 -273.728)" fill="#ffb6b6"/>
    <path id="Path_798" data-name="Path 798" d="M696.505,351.3l1.94,17.864.069.034c.057.028,2.514,1.233,5.531,2.669.509.242.436,1.291.968,1.542.366.173,1.334-.454,1.7-.281,3.3,1.542,6.632,3.041,7.961,3.448a8.247,8.247,0,0,0,5.482-.176l.042-.019.022-.041a4.185,4.185,0,0,0-.964-5.144,29.641,29.641,0,0,0-12.1-6.2l-2.538-.623-3.25-12.726Z" transform="translate(-565.19 -292.547)" fill="#3f3d56"/>
    <circle id="Ellipse_14" data-name="Ellipse 14" cx="6.375" cy="6.375" r="6.375" transform="translate(149.919 58.357)" fill="#ffb6b6"/>
    <path id="Path_799" data-name="Path 799" d="M760.135,350.434c.524-1.525,3.134-2.583,7.365-2.73s5.3,4.839,5.3,4.839c2.824,2.291-3.016,8.425-3.3,8.2l.127-1.152c.211-1.909,1.1-3.4-.033-5.388l-1.092.013-4.23.813,1.669-1.47-.047-.073a6.46,6.46,0,0,1-2.278.692,2.441,2.441,0,0,1-2.308-1.094,1.839,1.839,0,0,1-.206-.7,3.719,3.719,0,0,0-1.763,1.975A22.873,22.873,0,0,1,760.135,350.434Z" transform="translate(-610.17 -289.974)" fill="#2f2e41"/>
    <path id="Path_800" data-name="Path 800" d="M324.133,357.618a3.4,3.4,0,0,0-.279-.312c.024-.033.049-.07.073-.1Z" transform="translate(-298.448 -296.775)" fill="#2f2e41"/>
    <path id="Path_801" data-name="Path 801" d="M282.456,380.538a7.917,7.917,0,0,1-5.19,3.392,12.968,12.968,0,0,1-7.054-.136c-.291-.094-.582-.2-.864-.324a7.45,7.45,0,0,0,.321-1.106,7.591,7.591,0,0,0,.158-1.549,4.891,4.891,0,0,1-.882,1.216,4.462,4.462,0,0,1-.925.743,9.08,9.08,0,0,1-2.683-2.492c.045-.112.091-.224.133-.336a12.091,12.091,0,0,0,.521-1.8,12.315,12.315,0,0,0,.258-2.519,7.916,7.916,0,0,1-1.437,1.976,6.452,6.452,0,0,1-.552.524,7.254,7.254,0,0,1,.437-5.581c1.2-2.219,3.529-3.538,5.6-4.972s4.153-3.374,4.329-5.893c.118-1.7-.67-3.4-.355-5.078a3.923,3.923,0,0,1,6.663-2.016,16.169,16.169,0,0,0-2.822,5.375,5.758,5.758,0,0,0,1.5,5.723,9.037,9.037,0,0,1,1.637,1.364,5.339,5.339,0,0,1,.655,2.722c.182,1.828.779,3.586,1.1,5.4A8.1,8.1,0,0,1,282.456,380.538Z" transform="translate(-255.532 -294.056)" fill="#2f2e41"/>
    <path id="Path_802" data-name="Path 802" d="M19.519,551.318l2.767,2.138,9.562-9.654-4.083-3.155Z" transform="translate(-13.972 -389.66)" fill="#a0616a"/>
    <path id="Path_803" data-name="Path 803" d="M240.127,706.039l4.575,3.118-1.448,1.874,1.939,6.084a1.479,1.479,0,0,1-2.314,1.62l-5.207-4.023.535-2.547-1.783,1.583-1.963-1.517Z" transform="translate(-234.462 -546.47)" fill="#2f2e41"/>
    <path id="Path_804" data-name="Path 804" d="M303.369,359.751a6.6,6.6,0,1,0,11.359-4.58l-.032-.032c-.053-.055-.106-.111-.161-.164h0v0c-.069-.063-.137-.127-.209-.188a7.374,7.374,0,0,0-4.463-2.126C306.213,352.659,303.369,356.1,303.369,359.751Z" transform="translate(-283.785 -293.523)" fill="#2f2e41"/>
    <path id="Path_805" data-name="Path 805" d="M380.941,360.064a2.419,2.419,0,0,1-2.62,2.626l-16.353,14.765-2.814-4.445,16.959-13.116a2.432,2.432,0,0,1,4.827.169Z" transform="translate(-323.716 -297.227)" fill="#a0616a"/>
    <path id="Path_806" data-name="Path 806" d="M338.485,404.087s.608,1.124,2.687-.611c1.664-1.389,9.635-7.42,11.353-9.891a1.9,1.9,0,0,0,2.237-.65l-4.705-4.121c-1.408.162-1.378,1.108-1.231,1.645l-3.549,1.608-9.166,5.857,1.92,5.358Z" transform="translate(-307.221 -319.402)" fill="#2a5298"/>
    <path id="Path_807" data-name="Path 807" d="M77.165,336.376l-.343,1.632-.291,6.021,12.813.7-.4-9.26L87.7,333.432Z" transform="translate(-54.78 -241.338)" fill="#a0616a"/>
    <circle id="Ellipse_15" data-name="Ellipse 15" cx="5.538" cy="5.538" r="5.538" transform="translate(22.277 62.219)" fill="#a0616a"/>
    <path id="Path_808" data-name="Path 808" d="M297.652,421.553l-.034-4.6a7.326,7.326,0,0,1,5.673-7.14l.021,0,1.1-1.475,4.449.445.815,1.666,3.224,1.92,1.241,3.99a4.718,4.718,0,0,1,2.039,3.16c.421,2.692-1.463,5.385-1.687,5.694l-.578,3.253-12.565,2.217-.1.013Z" transform="translate(-279.668 -333.371)" fill="#2a5298"/>
    <path id="Path_809" data-name="Path 809" d="M324.083,364.612a18.876,18.876,0,0,1-2.007,1.106,11.549,11.549,0,0,1-2.189.791,7.563,7.563,0,0,0-.788-1.343,4.885,4.885,0,0,1,.006,1.5,7.818,7.818,0,0,1-3.732-.306l-1.043-1.749-.079,1.952c-.864.158-1.725.306-2.589.461-.052.006-.1.018-.152.027a7.282,7.282,0,0,1,1.916-6.7,6.1,6.1,0,0,1,6.4-1.243c.136.055.276.115.409.179v0h0c.079.039.146.133.233.124C324.259,359,324.38,361.932,324.083,364.612Z" transform="translate(-289.492 -297.843)" fill="#2f2e41"/>
    <path id="Path_810" data-name="Path 810" d="M89.3,526.152l2.771,2.132,9.543-9.674-4.09-3.146Z" transform="translate(-63.918 -371.635)" fill="#a0616a"/>
    <path id="Path_811" data-name="Path 811" d="M310.805,681.594l4.581,3.109-1.444,1.877,1.951,6.081a1.479,1.479,0,0,1-2.31,1.624l-5.215-4.013.53-2.548-1.779,1.586-1.966-1.513Z" transform="translate(-285.062 -528.972)" fill="#2f2e41"/>
    <path id="Path_812" data-name="Path 812" d="M276.057,539.589v-.036l1.313-2.263-1.341-2.946-.04-7.569.217-1.136a9.557,9.557,0,0,0-.248-4.592h0l-.024-4.607c-.047-1.154,1.741-2.169,1.324-3.131-3.941-9.094,4.024-16.032,4.078-16.088l.163-.169.883.669h.841l11.343,2.067.082.153a18,18,0,0,1,1.358,5.027c.565.654,7,8.106,7.577,8.624,3.868,3.5,6.083,9.293,7.059,12.435a4.989,4.989,0,0,1-.854,4.588l-14.644,16.04-3.941-3.638,7.924-14.439-.571-1.465a4.5,4.5,0,0,1-2.625-1.525l-1.6-1.9a3.56,3.56,0,0,1-.813-1.852l-.973-.117-3.485-3.659-2.418,21.9-.657,1.73-11.449,13.46-4.85-3.031Z" transform="translate(-259.67 -396.878)" fill="#2f2e41"/>
    <path id="Path_813" data-name="Path 813" d="M278.677,313.523a2.419,2.419,0,0,0,.746,3.634l-3.64,10.778,2.973,11.422,4.793-2.167-2.958-8.615,2.213-12.54a2.432,2.432,0,0,0-4.126-2.511Z" transform="translate(-264.039 -264.842)" fill="#a0616a"/>
    <path id="Path_814" data-name="Path 814" d="M280.274,387.072s-1.126.6-1.909-1.987c-.627-2.075-4.893-13.341-4.97-16.349a1.9,1.9,0,0,1-1.512-1.772l6.2-.857c1.087.909.542,1.683.125,2.051l2.11,3.574,4.411,9.65-3.629,5.268Z" transform="translate(-261.248 -303.148)" fill="#2a5298"/>
    <path id="Path_815" data-name="Path 815" d="M312.468,367.969a11.264,11.264,0,0,1,8.672-7.536c.008,0,.034-.013.069-.029s.048-.026.074-.04c-.079-.045-.156-.085-.235-.124h0v0c-.069-.063-.137-.127-.209-.188l-.2.008S313.58,358.94,312.468,367.969Z" transform="translate(-290.298 -298.787)" fill="#fd6584"/>
    <ellipse id="Ellipse_16" data-name="Ellipse 16" cx="2.517" cy="2.897" rx="2.517" ry="2.897" transform="translate(106.994 129.777) rotate(-56.364)" fill="#f2f2f2"/>
    <ellipse id="Ellipse_17" data-name="Ellipse 17" cx="2.517" cy="2.897" rx="2.517" ry="2.897" transform="translate(91.362 86.578) rotate(-56.364)" fill="#f2f2f2"/>
    <ellipse id="Ellipse_18" data-name="Ellipse 18" cx="2.517" cy="2.897" rx="2.517" ry="2.897" transform="translate(156.73 153.082) rotate(-56.364)" fill="#f2f2f2"/>
    <ellipse id="Ellipse_19" data-name="Ellipse 19" cx="2.517" cy="2.897" rx="2.517" ry="2.897" transform="translate(24.574 14.104) rotate(-56.364)" fill="#f2f2f2"/>
    <ellipse id="Ellipse_20" data-name="Ellipse 20" cx="2.517" cy="2.897" rx="2.517" ry="2.897" transform="translate(86.247 0.463) rotate(-56.364)" fill="#f2f2f2"/>
    <ellipse id="Ellipse_21" data-name="Ellipse 21" cx="2.517" cy="2.897" rx="2.517" ry="2.897" transform="translate(57.058 114.917) rotate(-56.364)" fill="#e6e6e6"/>
    <path id="Path_816" data-name="Path 816" d="M438.4,763.1H253.582a.338.338,0,1,1,0-.677H438.4a.338.338,0,0,1,0,.677Z" transform="translate(-247.906 -586.831)" fill="#ccc"/>
    <path id="Path_817" data-name="Path 817" d="M350.512,224.115a6.321,6.321,0,0,1-6.265-5.636l-3.608-33.51a6.318,6.318,0,0,1,5.6-6.95l107.133-11.535a6.318,6.318,0,0,1,6.951,5.6l3.608,33.51a6.318,6.318,0,0,1-5.6,6.951l-.015-.141.015.141L351.2,224.078A6.392,6.392,0,0,1,350.512,224.115Z" transform="translate(-310.437 -160.234)" fill="#e6e6e6"/>
    <path id="Path_818" data-name="Path 818" d="M459.183,172.048a5.643,5.643,0,0,0-.6.032L355.311,183.2a5.53,5.53,0,0,0-4.907,6.091l1.824,16.943a20.978,20.978,0,0,0,23.1,18.612l72.616-7.819A20.914,20.914,0,0,0,466.5,193.994l-1.831-17.006A5.532,5.532,0,0,0,459.183,172.048Z" transform="translate(-317.429 -164.243)" fill="#fff"/>
    <path id="Path_819" data-name="Path 819" d="M507.822,227.746,450.1,233.961a1.263,1.263,0,0,1-.27-2.512l57.719-6.215a1.263,1.263,0,1,1,.27,2.512Z" transform="translate(-387.816 -202.308)" fill="#2a5298"/>
    <path id="Path_820" data-name="Path 820" d="M510.743,254.869l-57.719,6.215a1.263,1.263,0,0,1-.27-2.512l57.719-6.215a1.263,1.263,0,0,1,.27,2.512Z" transform="translate(-389.906 -221.722)" fill="#2a5298"/>
    <path id="Path_821" data-name="Path 821" d="M462.67,301.31l-6.726.724a1.263,1.263,0,1,1-.27-2.512l6.726-.724a1.263,1.263,0,0,1,.27,2.512Z" transform="translate(-391.996 -254.964)" fill="#2a5298"/>
    <circle id="Ellipse_22" data-name="Ellipse 22" cx="2.274" cy="2.274" r="2.274" transform="translate(35.531 21.602)" fill="#3f3d56"/>
    <circle id="Ellipse_23" data-name="Ellipse 23" cx="2.274" cy="2.274" r="2.274" transform="translate(137.277 10.234)" fill="#3f3d56"/>
    <path id="Path_822" data-name="Path 822" d="M611.382,322.265a1.872,1.872,0,0,1-.635-1.477,24.912,24.912,0,0,0-1.6-9.685,1.873,1.873,0,0,1,.127-1.6,1.83,1.83,0,0,1,1.264-.89,10.14,10.14,0,0,1,8.054-1.33,1.852,1.852,0,0,1,2.036,1.276,41.213,41.213,0,0,1,1.809,10.949,1.851,1.851,0,0,1-1.548,1.869l-8,1.321A1.83,1.83,0,0,1,611.382,322.265Z" transform="translate(-502.57 -260.806)" fill="#2a5298"/>
    <path id="Path_823" data-name="Path 823" d="M618.573,322.04l6.73-1.112a.426.426,0,1,0-.139-.841l-6.73,1.112a.426.426,0,1,0,.139.841Z" transform="translate(-509.051 -270.204)" fill="#fff"/>
    <path id="Path_824" data-name="Path 824" d="M620.529,333.88l6.73-1.112a.426.426,0,1,0-.139-.841l-6.73,1.112a.426.426,0,0,0,.139.841Z" transform="translate(-510.451 -278.679)" fill="#fff"/>
    <path id="Path_825" data-name="Path 825" d="M622.485,345.719l6.73-1.112a.426.426,0,0,0-.139-.841l-6.73,1.112a.426.426,0,1,0,.139.841Z" transform="translate(-511.851 -287.153)" fill="#fff"/>
  </g>
</svg>
