<svg xmlns="http://www.w3.org/2000/svg" width="30" height="30" viewBox="0 0 30 30">
  <g id="Group_2613" data-name="Group 2613" transform="translate(-1742 -258)">
    <path id="Icon_open-trash" data-name="Icon open-trash" d="M6.084,0A2.034,2.034,0,0,0,4.056,2.028H2.028A2.034,2.034,0,0,0,0,4.056H14.2a2.034,2.034,0,0,0-2.028-2.028H10.14A2.034,2.034,0,0,0,8.112,0ZM2.028,6.084v9.755a.373.373,0,0,0,.385.385H11.8a.373.373,0,0,0,.385-.385V6.084H10.161v7.1a1.014,1.014,0,1,1-2.028,0v-7.1H6.1v7.1a1.014,1.014,0,1,1-2.028,0v-7.1H2.048Z" transform="translate(1749.901 264.667)" fill="#ff3c3c"/>
    <g id="Rectangle_1173" data-name="Rectangle 1173" transform="translate(1742 258)" fill="none" stroke="#ff3c3c" stroke-linejoin="round" stroke-width="1.3">
      <rect width="30" height="30" rx="15" stroke="none"/>
      <rect x="0.5" y="0.5" width="29" height="29" rx="14.5" fill="none"/>
    </g>
  </g>
</svg>