<svg xmlns="http://www.w3.org/2000/svg" width="296.391" height="279.112" viewBox="0 0 296.391 279.112">
  <g id="Group_2659" data-name="Group 2659" transform="translate(12237.809 -16014.041)">
    <path id="Path_1180" data-name="Path 1180" d="M231.142,119.163C207.79,160.29,95.619,146.813,107.469,201.708c11.908,54.895,32.065,47.575,23,81.964s-20.1,45.949,27.3,80.57,85.856,17.485,116.992-.813,81.964,19.983,112.4-22.6c30.381-42.58-33.111-43.858,9.469-126.054S254.494,77.977,231.142,119.163Z" transform="translate(-12344.404 15908.93)" fill="#e5f4ff"/>
    <g id="_19_Coming_soon" data-name="19 Coming soon" transform="translate(-12200.888 16085.797)">
      <g id="Nature" transform="translate(0 52.162)">
        <path id="Plant_5_" d="M.125,3.035C0,2.741-.088,2.347.157,2.14a.749.749,0,0,1,.665-.068A4.145,4.145,0,0,1,2.757,3.156,5.71,5.71,0,0,1,2.778.539c.056-.226.162-.486.392-.532.3-.061.5.272.621.55l.886,2.131A7.6,7.6,0,0,1,6.148.446.6.6,0,0,1,6.5.223c.355-.032.463.469.427.822C6.773,2.6,6.656,5.873,4.809,6.173S.8,4.566.125,3.035Z" transform="translate(165.196 92.88)" fill="#5a54ff"/>
        <path id="Plant_4_" d="M.2,1.6a.523.523,0,0,1,.466-.083A2.027,2.027,0,0,1,2.2,2.868,6.067,6.067,0,0,1,2.635.979,1.467,1.467,0,0,1,3.086.317.591.591,0,0,1,3.83.329.827.827,0,0,1,4,.913a5.664,5.664,0,0,1-.248,1.7C4.7,1.485,5.772.288,7.222.023A.65.65,0,0,1,7.759.1c.247.2.125.6-.041.873A7.6,7.6,0,0,1,3.5,4.21C2.577,4.394-.85,2.625.2,1.6Z" transform="translate(131.739 95.093)" fill="#f44e4e"/>
        <ellipse id="Ground" cx="81.125" cy="7.4" rx="81.125" ry="7.4" transform="translate(32.587 68.071)" fill="#e3e5fc"/>
        <g id="Plant_3_" transform="translate(119.834 57.847)">
          <path id="Path" d="M10.325,4.072c1.165-.083,2.048-1.283,2.951-2.214s2.259-1.639,3.181-.734c1.155,1.135.618,3.84,1.817,4.9,3.144-.1,9.506-2.122,11.461.377,4.93,6.3,4.081,2.229,7.016,3.662a1.059,1.059,0,0,1,.576.507c.287.682-.469,1.3-1.067,1.461-5.915,1.638-11.946.849-17.894.378-2.933-.233-5.785-.78-8.7-.378-2.126.294-4.49,1.246-6.5-.059C.811,10.439-.918,5.449.531,2.363,3.472-3.9,7.214,4.293,10.325,4.072Z" transform="translate(0 0)" fill="#fdc510"/>
          <path id="Path-2" data-name="Path" d="M.316,6.467a.307.307,0,0,1-.176-.054.317.317,0,0,1-.088-.439L3.957.141a.317.317,0,1,1,.527.351L.58,6.325A.312.312,0,0,1,.316,6.467Z" transform="translate(10.767 3.98)" fill="#fff"/>
          <path id="Path-3" data-name="Path" d="M.316,8.867a.323.323,0,0,1-.155-.041A.316.316,0,0,1,.041,8.4L4.681.161a.316.316,0,1,1,.55.311L.591,8.706A.313.313,0,0,1,.316,8.867Z" transform="translate(21.523 7.097)" fill="#fff"/>
          <path id="Path-4" data-name="Path" d="M2.16,3.35A.316.316,0,0,1,1.9,3.212L.054.494A.316.316,0,1,1,.578.139L2.421,2.857a.317.317,0,0,1-.084.439A.308.308,0,0,1,2.16,3.35Z" transform="translate(22.788 7.097)" fill="#fff"/>
        </g>
        <path id="Plant_2_" d="M1.433,7.473c.086.407.569.848.848.539A.627.627,0,0,0,2.4,7.674c.208-1.415.1-3.081,1.2-4Q4.2,4.791,4.8,5.909c.562-2.078,1.217-4.3,2.9-5.644q.048,1.449.1,2.9a.653.653,0,0,0,.16.495c.26.214.631-.078.814-.361.67-1.038,1.02-2.33,1.989-3.1a.6.6,0,0,1,.625-.152A.535.535,0,0,1,11.6.388c.248.946-.464,1.837-.957,2.681a6.709,6.709,0,0,0-.913,3.215l1.793-1.476c.358-.3.961-.562,1.211-.172a.747.747,0,0,1-.1.761c-.328.549-.816.986-1.17,1.516a1.842,1.842,0,0,0-.275,1.807,3.541,3.541,0,0,1,2.4-.937c-1.352.78-1.491,2.68-2.455,3.907C9.48,13.8,4.528,14.892,2.2,13.318A5.519,5.519,0,0,1,.222,9.945,4.281,4.281,0,0,1,.178,7.407C.629,6.277,1.188,6.314,1.433,7.473Z" transform="translate(176.917 79.174)" fill="#e3e5fc"/>
        <g id="Plant_1_" transform="translate(0 0)">
          <path id="Path-5" data-name="Path" d="M1.2,55.71A5.533,5.533,0,0,1,0,52.9c-.132-3.855,6.759-5.14,6.813-9,.029-2.109-2.05-3.576-3.586-5.087s-2.509-4.319-.672-5.482c.476-.3,1.057-.414,1.558-.674C5.771,31.8,6.1,29.569,5.488,27.864S3.575,24.774,2.6,23.229C-1.2,17.194.267,9.517,1.854,2.635c.3-1.287,1.152-2.928,2.482-2.59C5.15.251,5.533,1.122,5.8,1.887l3.444,9.785c.49,1.39,1.268,3.016,2.789,3.181,3.031.329,3.478-5.121,6.5-5.5,1.975,1.653,2.122,4.518,1.867,7.019s-.731,5.168.451,7.409,4.92,3.318,6.387,1.236C29.21,27.869,25.915,32,27.627,35c1.14,2,4.007,2.524,5.361,4.393,1.143,1.579.927,3.681.724,5.592-.966,9.168-1.4,21.033-12.738,23.912C12.738,70.987,5.179,61.511,1.2,55.71Z" transform="translate(8.776 0)" fill="#5a54ff"/>
          <path id="Path-6" data-name="Path" d="M3.476,27.727a2.3,2.3,0,0,1-.767-1.29C2.595,25.245,4.1,24.67,5.271,24.421s2.637-1.069,2.268-2.208a1.974,1.974,0,0,0-.532-.758A45.574,45.574,0,0,1,3.47,18.228c-1-1.246-1.5-3.132-.557-4.419a4.5,4.5,0,0,0,.8-1.114c.272-.814-.37-1.616-.9-2.29C1.406,8.621-2.335.682,2.11.03A4.226,4.226,0,0,1,5.835,1.906c.892,1.155,1.433,2.538,2.224,3.762,2.933,4.547,8.165,3.807,10.161,9.45.2.572.485,1.222,1.07,1.381,1.351.365,2.244-2.707,3.3-.625,2.134,4.2,4.268,9.972,2.406,14.608-1.123,2.793-3.735,6.229-7.174,5.509A29.47,29.47,0,0,1,3.476,27.727Z" transform="translate(0 34.93)" fill="#f44e4e"/>
          <path id="Path-7" data-name="Path" d="M9.843,19.479a.317.317,0,0,1-.282-.174L.034.46A.317.317,0,0,1,.6.175l9.526,18.845a.316.316,0,0,1-.14.425A.309.309,0,0,1,9.843,19.479Z" transform="translate(8.46 47.525)" fill="#fff"/>
          <g id="Group" transform="translate(16.428 22.764)">
            <path id="Path-8" data-name="Path" d="M9.767,47.256A.316.316,0,0,1,9.458,47L.006.379A.318.318,0,0,1,.253.006.317.317,0,0,1,.626.254l9.452,46.623a.318.318,0,0,1-.247.373C9.808,47.252,9.787,47.256,9.767,47.256Z" transform="translate(4.513 0)" fill="#fff"/>
            <path id="Path-9" data-name="Path" d="M.316,9.562a.315.315,0,0,1-.289-.446L4.048.186a.317.317,0,1,1,.577.26L.6,9.377A.319.319,0,0,1,.316,9.562Z" transform="translate(7.666 5.31)" fill="#fff"/>
            <path id="Path-10" data-name="Path" d="M.316,9.562a.315.315,0,0,1-.289-.446L4.048.186a.317.317,0,1,1,.577.26L.6,9.377A.317.317,0,0,1,.316,9.562Z" transform="translate(11.267 22.18)" fill="#fff"/>
            <path id="Path-11" data-name="Path" d="M9.007,4.735a.321.321,0,0,1-.135-.03L.181.6A.316.316,0,1,1,.453.031l8.69,4.1a.316.316,0,0,1-.137.6Z" transform="translate(0 19.223)" fill="#fff"/>
          </g>
          <path id="Path-12" data-name="Path" d="M9.066.58c4.241-1.65,8.9.542,12.986,2.555s9,3.89,13,1.715C40,2.16,40.763,1.078,46.136,4.273c3.483,2.068,13.624,5.209,17.516,5.955,2.9.556,28.244,5.5,6.659,4.849-6.131-.184-12.817-.76-18.755-.952-12.873-.415-25.786-1.854-38.679-1.26C9.985,13,3.233,15.9.781,13.606-2.635,10.41,6.083,1.742,9.066.58Z" transform="translate(1.811 62.144)" fill="#fdc510"/>
          <path id="Path-13" data-name="Path" d="M.317,7.2a.262.262,0,0,1-.062-.007.314.314,0,0,1-.248-.371L1.32.254A.318.318,0,0,1,1.692.006.314.314,0,0,1,1.94.378L.626,6.941A.313.313,0,0,1,.317,7.2Z" transform="translate(15.115 54.13)" fill="#fff"/>
          <path id="Path-14" data-name="Path" d="M5.285,8.2a.317.317,0,0,1-.265-.144L.052.49A.316.316,0,1,1,.581.143L5.548,7.709a.314.314,0,0,1-.091.437A.3.3,0,0,1,5.285,8.2Z" transform="translate(42.331 69.395)" fill="#fff"/>
          <path id="Path-15" data-name="Path" d="M6.134,7.017a.317.317,0,0,1-.233-.1L.083.53A.317.317,0,1,1,.55.1L6.369,6.487a.317.317,0,0,1-.235.53Z" transform="translate(13.224 69.395)" fill="#fff"/>
          <path id="Path-16" data-name="Path" d="M.317,4.151a.317.317,0,0,1-.255-.5L2.674.128A.316.316,0,0,1,3.183.5L.571,4.023A.314.314,0,0,1,.317,4.151Z" transform="translate(16.429 69.394)" fill="#fff"/>
          <path id="Path-17" data-name="Path" d="M6.057,3.431A.308.308,0,0,1,5.919,3.4L.178.6A.316.316,0,0,1,.455.032L6.2,2.831a.316.316,0,0,1-.138.6Z" transform="translate(39.075 70.379)" fill="#fff"/>
          <path id="Path-18" data-name="Path" d="M.317,4.124A.334.334,0,0,1,.2,4.1.318.318,0,0,1,.02,3.7L1.349.2A.317.317,0,0,1,1.942.43L.613,3.921A.316.316,0,0,1,.317,4.124Z" transform="translate(43.488 67.661)" fill="#fff"/>
        </g>
        <g id="Plant" transform="translate(164.671 12.667)">
          <path id="Path-19" data-name="Path" d="M.043,16.986A2.087,2.087,0,0,1,.4,15.2c1.079-1.049,3.026.775,4.312,0a1.977,1.977,0,0,0,.6-2.19,13.7,13.7,0,0,1-.653-2.339c-.138-2.22,2.257-3.608,3.649-5.346C9.616,3.7,10.21,1.42,12,.356A1.914,1.914,0,0,1,13.722.118c1,.456.967,1.876.745,2.955-.588,2.837-1.292,6.09.473,8.387.677.881,1.732,1.682,1.656,2.793-.081,1.179-1.406,1.872-1.824,2.977-.51,1.352.469,2.894.083,4.287-.4,1.457-2.085,2.136-2.936,3.387a20.171,20.171,0,0,1-1.064,1.829c-2,2.36-5.648.562-7.162-1.3A16.826,16.826,0,0,1,.043,16.986Z" transform="translate(46.161 24.485)" fill="#a7adff"/>
          <path id="Path-20" data-name="Path" d="M8.951.653c4.226-1.91,8.917.738,13.023,3.169S31.021,8.532,35,6c4.92-3.135,5.677-4.41,11.086-.566,3.509,2.489,13.69,6.325,17.592,7.25C66.59,13.373,92,19.507,70.394,18.5c-6.138-.285-12.834-1.04-18.777-1.332C38.73,16.538,25.793,14.693,12.9,15.259,10,15.389,3.281,18.749.8,16-2.651,12.181,5.977,2,8.951.653Z" transform="translate(0 38.416)" fill="#e3e5fc"/>
          <path id="Path-21" data-name="Path" d="M32.96,36.262c.528-.9.907-2.257-.049-2.767a2.33,2.33,0,0,0-1.322-.128l-4.461.434c-.473-1.8.6-3.661,1.977-5s3.07-2.387,4.307-3.838,1.945-3.544.976-5.163-4.057-1.84-4.75-.1q2.1-4.883,4.211-9.764c.356-.826.6-1.979-.221-2.425a1.987,1.987,0,0,0-1.395-.032,11.414,11.414,0,0,0-5.775,3.433c1.741-2.872-.669-6.416-3.379-8.532-2.46-1.92-6.237-3.4-8.69-1.474-2.967,2.335-.9,6.8-1.352,10.4a2.719,2.719,0,0,1-.91,1.9c-.946.719-2.377.4-3.5.836-2.141.826-2.1,3.632-1.7,5.761q1.7,8.892,3.392,17.783L4.468,33.164c-.91-.686-2.08-1.413-3.157-.986A2.127,2.127,0,0,0,.12,33.624c-.74,2.668,2.126,4.869,3.537,7.291,2.908,4.993-.711,20.236,10.028,14.227A52.733,52.733,0,0,0,32.96,36.262Z" transform="translate(15.627 0)" fill="#5a54ff"/>
          <path id="Path-22" data-name="Path" d="M.318,13.482a.344.344,0,0,1-.081-.01.317.317,0,0,1-.226-.387L3.384.236A.317.317,0,1,1,4,.4L.623,13.246A.317.317,0,0,1,.318,13.482Z" transform="translate(52.606 36.311)" fill="#fff"/>
          <path id="Path-23" data-name="Path" d="M.317,2.482a.316.316,0,0,1-.135-.6L4.126.03A.316.316,0,0,1,4.395.6L.45,2.451A.308.308,0,0,1,.317,2.482Z" transform="translate(54.144 40.887)" fill="#fff"/>
          <path id="Path-24" data-name="Path" d="M3.23,6.229a.317.317,0,0,1-.28-.171L.036.463A.316.316,0,1,1,.6.171l2.914,5.6a.316.316,0,0,1-.135.427A.293.293,0,0,1,3.23,6.229Z" transform="translate(50.152 41.81)" fill="#fff"/>
          <path id="Path-25" data-name="Path" d="M.317,36.751a.388.388,0,0,1-.076-.008.315.315,0,0,1-.231-.383L8.891.241a.317.317,0,1,1,.615.152L.624,36.511A.316.316,0,0,1,.317,36.751Z" transform="translate(28.961 15.406)" fill="#fff"/>
          <path id="Path-26" data-name="Path" d="M.316,6.188a.317.317,0,0,1-.181-.576L8.07.057a.316.316,0,0,1,.363.518L.5,6.13A.315.315,0,0,1,.316,6.188Z" transform="translate(34.76 22.39)" fill="#fff"/>
          <path id="Path-27" data-name="Path" d="M.316,8.05a.314.314,0,0,1-.253-.128A.317.317,0,0,1,.127,7.48L10.1.062a.317.317,0,0,1,.378.508L.5,7.988A.317.317,0,0,1,.316,8.05Z" transform="translate(30.406 39.989)" fill="#fff"/>
          <path id="Path-28" data-name="Path" d="M28.369.384a5.339,5.339,0,0,0-4.049.03c-1.748.922-2.011,3.168-3.877,3.916-2.325.932-4.964-1.2-7.512-.831-2.18.312-3.583,2.354-5.783,2.534a8.694,8.694,0,0,1-3.058-.559,4.9,4.9,0,0,0-3.075-.11C.067,5.744-.394,6.946.42,7.5a2.8,2.8,0,0,0,1.336.333,200.824,200.824,0,0,0,24.32.512c2.3-.1,6.251-.008,7.173-2.3C34.187,3.716,30.65,1.153,28.369.384Z" transform="translate(16.347 48.342)" fill="#f44e4e"/>
          <path id="Path-29" data-name="Path" d="M.317,5.627a.323.323,0,0,1-.088-.012.314.314,0,0,1-.216-.392L1.443.229A.312.312,0,0,1,1.835.013.314.314,0,0,1,2.051.4L.621,5.4A.319.319,0,0,1,.317,5.627Z" transform="translate(42.108 51.37)" fill="#fff"/>
          <path id="Path-30" data-name="Path" d="M1.1,1.992a.314.314,0,0,1-.274-.159L.042.474A.317.317,0,0,1,.591.158l.782,1.359a.317.317,0,0,1-.117.432A.324.324,0,0,1,1.1,1.992Z" transform="translate(42.109 52.275)" fill="#fff"/>
        </g>
      </g>
      <g id="UI" transform="translate(30.632 0)">
        <g id="Computer" transform="translate(0)">
          <g id="Group-2" data-name="Group">
            <path id="Path-31" data-name="Path" d="M47.4,5.433H2.49A2.5,2.5,0,0,1,0,2.943V2.49A2.5,2.5,0,0,1,2.49,0H47.4a2.5,2.5,0,0,1,2.49,2.49v.453A2.5,2.5,0,0,1,47.4,5.433Z" transform="translate(58.547 117.423)" fill="#978cff"/>
            <path id="Path-32" data-name="Path" d="M18.955,24.109H1.943A1.949,1.949,0,0,1,0,22.166V1.943A1.949,1.949,0,0,1,1.943,0H18.955A1.949,1.949,0,0,1,20.9,1.943V22.168A1.95,1.95,0,0,1,18.955,24.109Z" transform="translate(73.042 98.747)" fill="#978cff"/>
            <g id="Group-3" data-name="Group">
              <path id="Path-33" data-name="Path" d="M161.63,106.033H5.351A5.366,5.366,0,0,1,0,100.682V5.351A5.366,5.366,0,0,1,5.351,0H161.629a5.366,5.366,0,0,1,5.351,5.351v95.332A5.364,5.364,0,0,1,161.63,106.033Z" fill="#2a5298"/>
              <path id="Path-34" data-name="Path" d="M5.253,0A5.268,5.268,0,0,0,0,5.253V39.181Q24.8,19.269,50.248,0Z" transform="translate(2.723 2.467)" fill="#eff0fc"/>
              <path id="Path-35" data-name="Path" d="M155.64,0H50.248Q24.838,19.3,0,39.181V87.627A5.268,5.268,0,0,0,5.253,92.88H155.64a5.268,5.268,0,0,0,5.253-5.253V5.253A5.268,5.268,0,0,0,155.64,0Z" transform="translate(2.723 2.467)" fill="#e3e5fc"/>
            </g>
          </g>
          <circle id="Oval" cx="1.452" cy="1.452" r="1.452" transform="translate(81.718 98.553)" fill="#4b369d"/>
        </g>
      </g>
      <g id="Background" transform="translate(116.667 9.265)">
        <g id="Mop" transform="translate(0 0)">
          <path id="Path-36" data-name="Path" d="M47.282,42.592a.945.945,0,0,1-.626-.236L.322,1.662A.949.949,0,0,1,1.575.237l46.333,40.7a.947.947,0,0,1-.626,1.66Z" transform="translate(7.088 7.502)" fill="#007fff"/>
          <path id="Path-37" data-name="Path" d="M1.581,16.033a1.582,1.582,0,0,1-1.123-2.7L13.235.467A1.582,1.582,0,1,1,15.481,2.7L2.7,15.565A1.576,1.576,0,0,1,1.581,16.033Z" transform="translate(0 0)" fill="#007fff"/>
        </g>
        <g id="Ladder" transform="translate(37.383 45.874)">
          <rect id="Rectangle" width="0.633" height="89.939" transform="matrix(0.997, -0.073, 0.073, 0.997, 0, 0.046)" fill="#4b369d"/>
          <rect id="Rectangle-2" data-name="Rectangle" width="0.633" height="89.939" transform="matrix(0.997, -0.073, 0.073, 0.997, 14.76, 0.047)" fill="#4b369d"/>
          <rect id="Rectangle-3" data-name="Rectangle" width="14.76" height="0.633" transform="translate(0.975 8.595)" fill="#4b369d"/>
          <rect id="Rectangle-4" data-name="Rectangle" width="14.76" height="0.633" transform="translate(1.735 16.423)" fill="#4b369d"/>
          <rect id="Rectangle-5" data-name="Rectangle" width="14.76" height="0.633" transform="translate(2.496 24.252)" fill="#4b369d"/>
          <rect id="Rectangle-6" data-name="Rectangle" width="14.76" height="0.633" transform="translate(2.496 32.081)" fill="#4b369d"/>
          <rect id="Rectangle-7" data-name="Rectangle" width="14.76" height="0.633" transform="translate(3.256 39.909)" fill="#4b369d"/>
          <rect id="Rectangle-8" data-name="Rectangle" width="14.76" height="0.633" transform="translate(4.016 47.738)" fill="#4b369d"/>
          <rect id="Rectangle-9" data-name="Rectangle" width="14.76" height="0.633" transform="translate(4.016 55.566)" fill="#4b369d"/>
          <rect id="Rectangle-10" data-name="Rectangle" width="14.76" height="0.633" transform="translate(4.776 63.395)" fill="#4b369d"/>
        </g>
      </g>
      <g id="Characters" transform="translate(150.333 33.958)">
        <g id="Woman" transform="translate(0 0)">
          <g id="Head" transform="translate(15.73)">
            <g id="Face" transform="translate(1.363 1.716)">
              <path id="Path-38" data-name="Path" d="M0,1.19.235,5.558,3.654,6.877S1.6,3.87,1.947,1.192,0,1.19,0,1.19Z" transform="translate(3.391 9.655)" fill="#d4a79a"/>
              <path id="Path-39" data-name="Path" d="M.337,1.908S-.408,2.894.318,5.92s1.9,5.607,2.816,5.427c2.521-.5,3.406-2.284,4.279-3.814C8.485,5.658,6.358,1.084,6.358,1.084L4.347,0Z" transform="translate(0 0)" fill="#eac2ab"/>
            </g>
            <path id="Hair" d="M2.211,1.261C.607,2.786.074,5.13.008,7.341a10.985,10.985,0,0,0,.339,3.33,24.741,24.741,0,0,0,1.481,3.436,1.275,1.275,0,0,1,.159.621,1.539,1.539,0,0,1-.338.686,4.411,4.411,0,0,0,.014,4.846,2.329,2.329,0,0,0,1.412,1.049c.736.138,1.776-.11,2.024.6.123.353-.074.755.042,1.109.172.522.878.61,1.418.5a2.271,2.271,0,0,1,1.607-.007c.616.378.637,1.373,1.278,1.705a1.721,1.721,0,0,0,.8.127c1.121,0,1.624.849,2.745.848a6.456,6.456,0,0,0,2.067-1.152.873.873,0,0,0,.221-1.287c-.36-.324-1.018-.179-1.307-.567-.461-.625.692-1.4.5-2.156-.064-.255-.28-.456-.328-.714a2.036,2.036,0,0,1,.228-.9c.294-.979-.53-1.916-1.325-2.558s-1.721-1.383-1.717-2.4c0-1.207,1.327-2.062,1.457-3.264.138-1.283-1.133-2.393-1.025-3.677.066-.783.638-1.452.721-2.234a3.729,3.729,0,0,0-1-2.457,6.137,6.137,0,0,0-1.371-1.489C9.352.814,8.764,1.163,8.018.964,7.353.787,6.88.2,6.13.064A4.671,4.671,0,0,0,2.211,1.261Z" transform="translate(0 0)" fill="#2a5298"/>
          </g>
          <g id="Leg_1_" transform="translate(19.942 33.237)">
            <path id="Skin_1_" d="M0,1.153l4.1,4.14L5.628,4.064,1.091,0S.162.549,0,1.153Z" transform="translate(11.313 27.612)" fill="#d4a79a"/>
            <path id="Shoe_1_" d="M.739,10.492A17.947,17.947,0,0,0,3.506,7.448C5.12,5.314,6.817,2.867,6.778,2.2S4.1-.589,3.619.157s.41,1.736-1.4,2.43c-1.555.594-.579,2.5-1.432,4.736S-.418,10.458.739,10.492Z" transform="translate(12.43 30.026)" fill="#f3aa02"/>
            <path id="Leg_3_" d="M8.434,18.438c.4,1.584.518,3.3,1.386,4.594C11.139,25,13.454,25.567,15.571,26a18.107,18.107,0,0,1-2.911,5.133,12.843,12.843,0,0,1-2.835,3.132,21.482,21.482,0,0,0-1.449-4.378c-.608-1.209-1.432-2.251-2.146-3.38C4.11,23.149,3.011,19.1,1.946,15.122,1.39,13.049-2.639-3.184,2.849.558,6.574,3.1,5.684,7.592,8.434,18.438Z" transform="translate(0 0)" fill="#4b369d"/>
          </g>
          <g id="Leg" transform="translate(9.631 31.752)">
            <path id="Skin" d="M1.251.045,0,5.737l1.861.615L2.813.335A2.712,2.712,0,0,0,1.251.045Z" transform="translate(7.792 36.25)" fill="#eac2ab"/>
            <path id="Shoe" d="M.175,3.333a18.021,18.021,0,0,0,4.059.674c2.668.2,5.644.3,6.186-.1s.89-3.762,0-3.762-1.234,1.287-2.8.138C6.274-.7,5.2,1.155,2.863,1.649S-.424,2.343.175,3.333Z" transform="translate(0 40.898)" fill="#fdc510"/>
            <path id="Leg_2_" d="M.054,37.564a1.629,1.629,0,0,1,.561-.493c1.954-1.364,1.643-3.654,1.471-5.648-.409-4.729.647-9.4,1.226-14.073a47.483,47.483,0,0,0-.365-13.7C2.67,2,2.3-.534,4.78.1A9.783,9.783,0,0,0,8.324.3c.63-.069.007-.312.63-.069,2.121.827.5,2.958-.037,4.355-1.065,2.781-.052,8.194-.387,11.191a68.2,68.2,0,0,0-.517,12.035c.117,2.087.274,4.172.419,6.257.084,1.216.925,3.924.181,4.972-1.023,1.44-5.084-.093-6.463-.214C1.109,38.733-.294,38.252.054,37.564Z" transform="translate(4.152 0)" fill="#5a54ff"/>
          </g>
          <path id="Arm" d="M13.542,15.806c-1.928,1.457-4.532,4.042-6.387,1.037-.971-1.574-1.656-3.3-2.563-4.912a13.8,13.8,0,0,1-1.356-5.26,24.455,24.455,0,0,0-.228-4.839C2.828,1.375.687-.635.66.2s1.2,3.9-.4,2.452C-.213,2.217.069,3.024.231,4A5.845,5.845,0,0,0,1.689,6.251c1.285,5.4.912,11.8,6.884,14.45,1.658.736,4.267-1.643,5.6-2.46.471-.29,5.133-3.493,5.258-3.37l-1.646-1.618a.882.882,0,0,0-.458-.292.86.86,0,0,0-.591.214c-.876.615-1.643,1.368-2.465,2.053Q13.913,15.525,13.542,15.806Z" transform="translate(0 5.117)" fill="#eac2ab"/>
          <g id="Body_1_" transform="translate(14.021 15.259)">
            <path id="Path-40" data-name="Path" d="M.173,17.668a40.18,40.18,0,0,1,.4-8.741C1.308,5.59.573,2.722,3.11.719s4.6.667,5.271,2.068.064,8.562.159,10.919a17.183,17.183,0,0,0,.532,4.567c.339,1.658,3.514,5.555-.493,4.388-1.361-.4-4.214-.567-5.379-.979A7.507,7.507,0,0,1,.1,20.2C-.161,19.935.173,17.668.173,17.668Z" transform="translate(2.211 0)" fill="#d7384e"/>
            <path id="Path-41" data-name="Path" d="M.967,3.317S5.651-1.676,7.448.59,2.886,7.528,2.886,7.528L0,3.776Z" transform="translate(0 0.079)" fill="#f44e4e"/>
          </g>
        </g>
      </g>
    </g>
  </g>
</svg>
