<svg width="20" height="21" viewBox="0 0 20 21" fill="none" xmlns="http://www.w3.org/2000/svg">
<path d="M13.125 11.334C13.125 11.1682 13.0592 11.0093 12.9419 10.892C12.8247 10.7748 12.6658 10.709 12.5 10.709H7.5C7.33424 10.709 7.17527 10.7748 7.05806 10.892C6.94085 11.0093 6.875 11.1682 6.875 11.334C6.875 11.4997 6.94085 11.6587 7.05806 11.7759C7.17527 11.8931 7.33424 11.959 7.5 11.959H12.5C12.6658 11.959 12.8247 11.8931 12.9419 11.7759C13.0592 11.6587 13.125 11.4997 13.125 11.334ZM13.125 14.6673C13.125 14.5016 13.0592 14.3426 12.9419 14.2254C12.8247 14.1082 12.6658 14.0423 12.5 14.0423H7.5C7.33424 14.0423 7.17527 14.1082 7.05806 14.2254C6.94085 14.3426 6.875 14.5016 6.875 14.6673C6.875 14.8331 6.94085 14.9921 7.05806 15.1093C7.17527 15.2265 7.33424 15.2923 7.5 15.2923H12.5C12.6658 15.2923 12.8247 15.2265 12.9419 15.1093C13.0592 14.9921 13.125 14.8331 13.125 14.6673Z" fill="#24243E"/>
<path fill-rule="evenodd" clip-rule="evenodd" d="M5.83464 2.375C5.22685 2.375 4.64395 2.61644 4.21418 3.04621C3.78441 3.47598 3.54297 4.05888 3.54297 4.66667V16.3333C3.54297 16.9411 3.78441 17.524 4.21418 17.9538C4.64395 18.3836 5.22685 18.625 5.83464 18.625H14.168C14.7758 18.625 15.3587 18.3836 15.7884 17.9538C16.2182 17.524 16.4596 16.9411 16.4596 16.3333V7.14C16.4596 6.8225 16.3563 6.51417 16.1646 6.26083L13.6663 2.95417C13.5304 2.77426 13.3546 2.62833 13.1527 2.52784C12.9509 2.42735 12.7285 2.37503 12.503 2.375H5.83464ZM4.79297 4.66667C4.79297 4.09167 5.25964 3.625 5.83464 3.625H11.8763V7.28917C11.8763 7.63417 12.1563 7.91417 12.5013 7.91417H15.2096V16.3333C15.2096 16.9083 14.743 17.375 14.168 17.375H5.83464C5.25964 17.375 4.79297 16.9083 4.79297 16.3333V4.66667Z" fill="black"/>
</svg>
