<svg width="24" height="22" viewBox="0 0 24 22" fill="none" xmlns="http://www.w3.org/2000/svg">
<path d="M19.3125 21.3125H4.6875C2.10277 21.3125 0 19.2097 0 16.625V5.375C0 2.79031 2.10277 0.6875 4.6875 0.6875H8.4375C10.7011 0.6875 12.5952 2.30056 13.0308 4.4375H19.3125C21.8972 4.4375 24 6.54031 24 9.125V16.625C24 19.2097 21.8972 21.3125 19.3125 21.3125ZM4.6875 2.5625C3.13669 2.5625 1.875 3.82419 1.875 5.375V16.625C1.875 18.1758 3.13669 19.4375 4.6875 19.4375H19.3125C20.8633 19.4375 22.125 18.1758 22.125 16.625V9.125C22.125 7.57419 20.8633 6.3125 19.3125 6.3125H12.1875C11.6697 6.3125 11.25 5.89278 11.25 5.375C11.25 3.82419 9.98831 2.5625 8.4375 2.5625H4.6875Z" fill="#767676"/>
<path d="M8.4375 6.3125H4.6875C4.16972 6.3125 3.75 5.89278 3.75 5.375C3.75 4.85722 4.16972 4.4375 4.6875 4.4375H8.4375C8.95528 4.4375 9.375 4.85722 9.375 5.375C9.375 5.89278 8.95528 6.3125 8.4375 6.3125Z" fill="#767676"/>
</svg>
