<svg width="24" height="24" viewBox="0 0 24 24" fill="none" xmlns="http://www.w3.org/2000/svg">
<path fill-rule="evenodd" clip-rule="evenodd" d="M8.75 11V13C8.75 13.597 8.987 14.169 9.409 14.591C9.831 15.013 10.403 15.25 11 15.25H13C13.597 15.25 14.169 15.013 14.591 14.591C15.013 14.169 15.25 13.597 15.25 13V11C15.25 10.403 15.013 9.831 14.591 9.409C14.169 8.987 13.597 8.75 13 8.75H11C10.403 8.75 9.831 8.987 9.409 9.409C8.987 9.831 8.75 10.403 8.75 11ZM10.25 11C10.25 10.801 10.329 10.61 10.47 10.47C10.61 10.329 10.801 10.25 11 10.25H13C13.199 10.25 13.39 10.329 13.53 10.47C13.671 10.61 13.75 10.801 13.75 11V13C13.75 13.199 13.671 13.39 13.53 13.53C13.39 13.671 13.199 13.75 13 13.75H11C10.801 13.75 10.61 13.671 10.47 13.53C10.329 13.39 10.25 13.199 10.25 13V11Z" fill="#767676"/>
<path fill-rule="evenodd" clip-rule="evenodd" d="M1.25 3.5V5.5C1.25 6.097 1.487 6.669 1.909 7.091C2.331 7.513 2.903 7.75 3.5 7.75H5.5C6.097 7.75 6.669 7.513 7.091 7.091C7.513 6.669 7.75 6.097 7.75 5.5V3.5C7.75 2.903 7.513 2.331 7.091 1.909C6.669 1.487 6.097 1.25 5.5 1.25H3.5C2.903 1.25 2.331 1.487 1.909 1.909C1.487 2.331 1.25 2.903 1.25 3.5ZM2.75 3.5C2.75 3.301 2.829 3.11 2.97 2.97C3.11 2.829 3.301 2.75 3.5 2.75H5.5C5.699 2.75 5.89 2.829 6.03 2.97C6.171 3.11 6.25 3.301 6.25 3.5V5.5C6.25 5.699 6.171 5.89 6.03 6.03C5.89 6.171 5.699 6.25 5.5 6.25H3.5C3.301 6.25 3.11 6.171 2.97 6.03C2.829 5.89 2.75 5.699 2.75 5.5V3.5Z" fill="#767676"/>
<path fill-rule="evenodd" clip-rule="evenodd" d="M16.25 18.5V20.5C16.25 21.097 16.487 21.669 16.909 22.091C17.331 22.513 17.903 22.75 18.5 22.75H20.5C21.097 22.75 21.669 22.513 22.091 22.091C22.513 21.669 22.75 21.097 22.75 20.5V18.5C22.75 17.903 22.513 17.331 22.091 16.909C21.669 16.487 21.097 16.25 20.5 16.25H18.5C17.903 16.25 17.331 16.487 16.909 16.909C16.487 17.331 16.25 17.903 16.25 18.5ZM17.75 18.5C17.75 18.301 17.829 18.11 17.97 17.97C18.11 17.829 18.301 17.75 18.5 17.75H20.5C20.699 17.75 20.89 17.829 21.03 17.97C21.171 18.11 21.25 18.301 21.25 18.5V20.5C21.25 20.699 21.171 20.89 21.03 21.03C20.89 21.171 20.699 21.25 20.5 21.25H18.5C18.301 21.25 18.11 21.171 17.97 21.03C17.829 20.89 17.75 20.699 17.75 20.5V18.5Z" fill="#767676"/>
<path fill-rule="evenodd" clip-rule="evenodd" d="M7 5.25H20C20.332 5.25 20.649 5.382 20.884 5.616C21.118 5.851 21.25 6.168 21.25 6.5V10C21.25 10.332 21.118 10.649 20.884 10.884C20.649 11.118 20.332 11.25 20 11.25H17C16.586 11.25 16.25 11.586 16.25 12C16.25 12.414 16.586 12.75 17 12.75H20C20.729 12.75 21.429 12.46 21.945 11.945C22.46 11.429 22.75 10.729 22.75 10C22.75 8.917 22.75 7.583 22.75 6.5C22.75 5.771 22.46 5.071 21.945 4.555C21.429 4.04 20.729 3.75 20 3.75C15.916 3.75 7 3.75 7 3.75C6.586 3.75 6.25 4.086 6.25 4.5C6.25 4.914 6.586 5.25 7 5.25Z" fill="#767676"/>
<path fill-rule="evenodd" clip-rule="evenodd" d="M13 18.75H4C3.668 18.75 3.351 18.618 3.116 18.384C2.882 18.149 2.75 17.832 2.75 17.5C2.75 16.417 2.75 15.083 2.75 14C2.75 13.668 2.882 13.351 3.116 13.116C3.351 12.882 3.668 12.75 4 12.75H9.5C9.914 12.75 10.25 12.414 10.25 12C10.25 11.586 9.914 11.25 9.5 11.25H4C3.271 11.25 2.571 11.54 2.055 12.055C1.54 12.571 1.25 13.271 1.25 14V17.5C1.25 18.229 1.54 18.929 2.055 19.445C2.571 19.96 3.271 20.25 4 20.25H13C13.414 20.25 13.75 19.914 13.75 19.5C13.75 19.086 13.414 18.75 13 18.75Z" fill="#767676"/>
<path fill-rule="evenodd" clip-rule="evenodd" d="M19.5298 13.4698L18.0608 11.9997L19.5298 10.5297C19.8228 10.2377 19.8228 9.76175 19.5298 9.46975C19.2378 9.17675 18.7618 9.17675 18.4698 9.46975L16.4698 11.4698C16.1767 11.7628 16.1767 12.2367 16.4698 12.5297L18.4698 14.5297C18.7618 14.8228 19.2378 14.8228 19.5298 14.5297C19.8228 14.2378 19.8228 13.7618 19.5298 13.4698Z" fill="#767676"/>
<path fill-rule="evenodd" clip-rule="evenodd" d="M12.5297 22.0298L14.5297 20.0298C14.8227 19.7368 14.8227 19.2627 14.5297 18.9697L12.5297 16.9697C12.2377 16.6768 11.7617 16.6768 11.4698 16.9697C11.1768 17.2617 11.1768 17.7378 11.4698 18.0298L12.9387 19.4998L11.4698 20.9697C11.1768 21.2617 11.1768 21.7378 11.4698 22.0298C11.7617 22.3228 12.2377 22.3228 12.5297 22.0298Z" fill="#767676"/>
</svg>
