<svg width="20" height="21" viewBox="0 0 20 21" fill="none" xmlns="http://www.w3.org/2000/svg">
<path d="M5 8.62482C5 8.27982 5.27938 7.99982 5.625 7.99982H9.375C9.72062 7.99982 10 8.27982 10 8.62482C10 8.96982 9.72062 9.24982 9.375 9.24982H5.625C5.27938 9.24982 5 8.96982 5 8.62482ZM9.375 10.4998H5.625C5.27938 10.4998 5 10.7798 5 11.1248C5 11.4698 5.27938 11.7498 5.625 11.7498H9.375C9.72062 11.7498 10 11.4698 10 11.1248C10 10.7798 9.72062 10.4998 9.375 10.4998ZM9.375 12.9998H5.625C5.27938 12.9998 5 13.2798 5 13.6248C5 13.9698 5.27938 14.2498 5.625 14.2498H9.375C9.72062 14.2498 10 13.9698 10 13.6248C10 13.2798 9.72062 12.9998 9.375 12.9998ZM9.375 15.4998H5.625C5.27938 15.4998 5 15.7798 5 16.1248C5 16.4698 5.27938 16.7498 5.625 16.7498H9.375C9.72062 16.7498 10 16.4698 10 16.1248C10 15.7798 9.72062 15.4998 9.375 15.4998ZM18.75 18.6248C18.75 18.9698 18.4706 19.2498 18.125 19.2498H1.875C1.52938 19.2498 1.25 18.9698 1.25 18.6248C1.25 18.2798 1.52938 17.9998 1.875 17.9998H2.5V6.51107C2.5 6.03419 2.765 5.60607 3.19062 5.39294L10.6906 1.64294C11.0819 1.44794 11.5356 1.46794 11.9069 1.69732C12.2781 1.92669 12.4994 2.32419 12.4994 2.76107V7.37482H16.2494C16.9388 7.37482 17.4994 7.93544 17.4994 8.62482V17.9998H18.1244C18.47 17.9998 18.75 18.2798 18.75 18.6248ZM12.5 8.62482V17.9998H16.25V8.62482H12.5ZM3.75 17.9998H11.25V2.76107L3.75 6.51107V17.9998Z" fill="#24243E"/>
</svg>
