<svg width="24" height="25" viewBox="0 0 24 25" fill="none" xmlns="http://www.w3.org/2000/svg">
<path d="M6.44356 6.509H6.436H3.771C3.67991 6.509 3.5 6.61546 3.5 6.886C3.5 7.15699 3.6803 7.263 3.77 7.263H20.229C20.3201 7.263 20.5 7.15654 20.5 6.886C20.5 6.6159 20.3205 6.509 20.228 6.509H17.658H17.6509L17.6439 6.5088C16.9099 6.48803 16.1585 5.97211 15.9115 5.19553L15.909 5.1877L15.9091 5.18768L15.8791 5.08768L15.878 5.08396L15.878 5.08395L15.7644 4.6943C15.7643 4.69402 15.7642 4.69374 15.7641 4.69346C15.6904 4.44309 15.6395 4.27222 15.5717 4.12491L15.5711 4.12346C15.2939 3.51576 14.7934 3.12351 14.2499 3.02501L6.44356 6.509ZM6.44356 6.509L6.45112 6.50877M6.44356 6.509L6.45112 6.50877M6.45112 6.50877C7.22436 6.48538 7.85449 5.93131 8.08849 5.19553L8.08855 5.19555M6.45112 6.50877L8.08855 5.19555M8.08855 5.19555L8.09091 5.18767M8.08855 5.19555L8.09091 5.18767M8.09091 5.18767L8.12091 5.08767L8.12092 5.08768M8.09091 5.18767L8.12092 5.08768M8.12092 5.08768L8.12168 5.08508M8.12092 5.08768L8.12168 5.08508M8.12168 5.08508L8.23668 4.69408L8.237 4.693M8.12168 5.08508L8.237 4.693M8.237 4.693C8.30972 4.44367 8.3607 4.27183 8.42826 4.12491L8.4287 4.12397M8.237 4.693L8.4287 4.12397M8.4287 4.12397C8.70695 3.5156 9.2067 3.12361 9.74972 3.02507M8.4287 4.12397L9.74972 3.02507M9.74972 3.02507C9.88164 3.00146 10.0289 3 10.261 3H13.739C13.9724 3 14.1193 3.00149 14.2499 3.02499L9.74972 3.02507Z" fill="#FF5C5C" stroke="#FF5C5C"/>
<path fill-rule="evenodd" clip-rule="evenodd" d="M11.5962 22.5004H12.4042C15.1872 22.5004 16.5782 22.5004 17.4842 21.6144C18.3882 20.7284 18.4802 19.2754 18.6652 16.3694L18.9322 12.1814C19.0322 10.6044 19.0822 9.81541 18.6292 9.31641C18.1752 8.81641 17.4092 8.81641 15.8762 8.81641H8.12422C6.59122 8.81641 5.82422 8.81641 5.37122 9.31641C4.91722 9.81641 4.96722 10.6044 5.06822 12.1814L5.33522 16.3694C5.52022 19.2754 5.61222 20.7294 6.51722 21.6144C7.42222 22.5004 8.81322 22.5004 11.5962 22.5004ZM10.2462 12.6894C10.2062 12.2554 9.83822 11.9394 9.42622 11.9824C9.01322 12.0254 8.71322 12.4124 8.75422 12.8464L9.25422 18.1094C9.29422 18.5434 9.66223 18.8594 10.0742 18.8164C10.4872 18.7734 10.7872 18.3864 10.7462 17.9524L10.2462 12.6894ZM14.5752 11.9824C14.9872 12.0254 15.2882 12.4124 15.2462 12.8464L14.7462 18.1094C14.7062 18.5434 14.3372 18.8594 13.9262 18.8164C13.5132 18.7734 13.2132 18.3864 13.2542 17.9524L13.7542 12.6894C13.7942 12.2554 14.1642 11.9394 14.5752 11.9824Z" fill="#FF5C5C"/>
</svg>
