<!-- <svg width="512" height="512" viewBox="0 0 512 512" fill="none" xmlns="http://www.w3.org/2000/svg">
<path d="M128 0C110.4 0 96 14.4 96 32V480C96 497.6 110.4 512 128 512H448C465.6 512 480 497.6 480 480V128L352 0H128Z" fill="#E2E5E7"/>
<path d="M384 128H480L352 0V96C352 113.6 366.4 128 384 128Z" fill="#B0B7BD"/>
<path d="M480 224L384 128H480V224Z" fill="#CAD1D8"/>
<path d="M416 416C416 424.8 408.8 432 400 432H48C39.2 432 32 424.8 32 416V256C32 247.2 39.2 240 48 240H400C408.8 240 416 247.2 416 256V416Z" fill="#27B346"/>
<path d="M400 432H96V448H400C408.8 448 416 440.8 416 432V416C416 424.8 408.8 432 400 432Z" fill="#CAD1D8"/>
<path d="M42.0881 265V264.273H42.527V264.351H42.1761V264.597H42.5043V264.675H42.1761V264.922H42.5327V265H42.0881ZM42.7283 264.273L42.9158 264.575H42.9215L43.109 264.273H43.2127L42.984 264.636L43.2127 265H43.109L42.9215 264.703H42.9158L42.7283 265H42.6246L42.859 264.636L42.6246 264.273H42.7283ZM43.9008 264.5H43.8128C43.8076 264.475 43.7984 264.452 43.7854 264.433C43.7726 264.414 43.757 264.398 43.7385 264.385C43.7203 264.372 43.7001 264.362 43.6778 264.355C43.6556 264.348 43.6324 264.345 43.6082 264.345C43.5642 264.345 43.5243 264.356 43.4885 264.379C43.453 264.401 43.4247 264.434 43.4037 264.477C43.3828 264.52 43.3724 264.573 43.3724 264.636C43.3724 264.699 43.3828 264.752 43.4037 264.796C43.4247 264.839 43.453 264.872 43.4885 264.894C43.5243 264.916 43.5642 264.928 43.6082 264.928C43.6324 264.928 43.6556 264.924 43.6778 264.918C43.7001 264.911 43.7203 264.901 43.7385 264.888C43.757 264.875 43.7726 264.859 43.7854 264.839C43.7984 264.82 43.8076 264.798 43.8128 264.773H43.9008C43.8942 264.81 43.8821 264.843 43.8646 264.873C43.8471 264.902 43.8253 264.927 43.7993 264.947C43.7732 264.968 43.744 264.983 43.7116 264.994C43.6794 265.005 43.6449 265.01 43.6082 265.01C43.5462 265.01 43.491 264.995 43.4427 264.964C43.3944 264.934 43.3564 264.891 43.3287 264.835C43.301 264.779 43.2872 264.713 43.2872 264.636C43.2872 264.56 43.301 264.493 43.3287 264.438C43.3564 264.382 43.3944 264.339 43.4427 264.308C43.491 264.278 43.5462 264.263 43.6082 264.263C43.6449 264.263 43.6794 264.268 43.7116 264.279C43.744 264.289 43.7732 264.305 43.7993 264.326C43.8253 264.346 43.8471 264.371 43.8646 264.4C43.8821 264.429 43.8942 264.463 43.9008 264.5ZM44.0431 265V264.273H44.4821V264.351H44.1312V264.597H44.4593V264.675H44.1312V264.922H44.4877V265H44.0431ZM44.6408 265V264.273H44.7289V264.922H45.0669V265H44.6408Z" fill="white"/>
<path d="M134.552 338.384L105.048 293.456H122.2C123.395 293.456 124.248 293.627 124.76 293.968C125.315 294.267 125.805 294.779 126.232 295.504L147.288 329.488C147.501 328.933 147.736 328.4 147.992 327.888C148.248 327.333 148.547 326.779 148.888 326.224L168.152 295.824C169.091 294.245 170.307 293.456 171.8 293.456H188.312L158.488 337.68L189.144 386H171.928C170.776 386 169.837 385.701 169.112 385.104C168.429 384.507 167.853 383.824 167.384 383.056L145.944 347.6C145.773 348.112 145.581 348.603 145.368 349.072C145.155 349.499 144.941 349.904 144.728 350.288L124.184 383.056C123.715 383.781 123.139 384.464 122.456 385.104C121.773 385.701 120.92 386 119.896 386H103.768L134.552 338.384ZM226.675 371.792H263.731V386H209.459V293.456H226.675V371.792ZM335.424 310.288C334.955 311.227 334.4 311.888 333.76 312.272C333.163 312.656 332.437 312.848 331.584 312.848C330.731 312.848 329.771 312.528 328.704 311.888C327.637 311.205 326.379 310.459 324.928 309.648C323.477 308.837 321.771 308.112 319.808 307.472C317.888 306.789 315.605 306.448 312.96 306.448C310.571 306.448 308.48 306.747 306.688 307.344C304.939 307.899 303.445 308.688 302.208 309.712C301.013 310.736 300.117 311.973 299.52 313.424C298.923 314.832 298.624 316.389 298.624 318.096C298.624 320.272 299.221 322.085 300.416 323.536C301.653 324.987 303.275 326.224 305.28 327.248C307.285 328.272 309.568 329.189 312.128 330C314.688 330.811 317.291 331.685 319.936 332.624C322.624 333.52 325.248 334.587 327.808 335.824C330.368 337.019 332.651 338.555 334.656 340.432C336.661 342.267 338.261 344.528 339.456 347.216C340.693 349.904 341.312 353.168 341.312 357.008C341.312 361.189 340.587 365.115 339.136 368.784C337.728 372.411 335.637 375.589 332.864 378.32C330.133 381.008 326.784 383.141 322.816 384.72C318.848 386.256 314.304 387.024 309.184 387.024C306.24 387.024 303.339 386.725 300.48 386.128C297.621 385.573 294.869 384.763 292.224 383.696C289.621 382.629 287.168 381.349 284.864 379.856C282.603 378.363 280.576 376.699 278.784 374.864L283.776 366.608C284.245 366.011 284.8 365.52 285.44 365.136C286.123 364.709 286.869 364.496 287.68 364.496C288.747 364.496 289.899 364.944 291.136 365.84C292.373 366.693 293.824 367.653 295.488 368.72C297.195 369.787 299.179 370.768 301.44 371.664C303.744 372.517 306.496 372.944 309.696 372.944C314.603 372.944 318.4 371.792 321.088 369.488C323.776 367.141 325.12 363.792 325.12 359.44C325.12 357.008 324.501 355.024 323.264 353.488C322.069 351.952 320.469 350.672 318.464 349.648C316.459 348.581 314.176 347.685 311.616 346.96C309.056 346.235 306.453 345.445 303.808 344.592C301.163 343.739 298.56 342.715 296 341.52C293.44 340.325 291.157 338.768 289.152 336.848C287.147 334.928 285.525 332.539 284.288 329.68C283.093 326.779 282.496 323.216 282.496 318.992C282.496 315.621 283.157 312.336 284.48 309.136C285.845 305.936 287.808 303.099 290.368 300.624C292.971 298.149 296.149 296.165 299.904 294.672C303.659 293.179 307.947 292.432 312.768 292.432C318.229 292.432 323.264 293.285 327.872 294.992C332.48 296.699 336.405 299.088 339.648 302.16L335.424 310.288Z" fill="white"/>
</svg> -->



<!-- <svg width="486" height="486" viewBox="0 0 486 486" fill="none" xmlns="http://www.w3.org/2000/svg">
<path d="M297.386 233.128L129.276 203.512V422.349C129.278 424.727 129.748 427.08 130.66 429.276C131.571 431.472 132.907 433.466 134.589 435.146C136.271 436.825 138.268 438.157 140.465 439.065C142.663 439.973 145.017 440.439 147.395 440.437H437.476C439.856 440.443 442.214 439.98 444.414 439.074C446.615 438.168 448.615 436.837 450.301 435.157C451.987 433.477 453.325 431.481 454.238 429.283C455.152 427.085 455.623 424.729 455.625 422.349V341.719L297.386 233.128Z" fill="#4F5E56"/>
<path d="M297.386 45.5625H147.395C145.017 45.5605 142.663 46.0268 140.465 46.9347C138.268 47.8427 136.271 49.1745 134.589 50.8542C132.907 52.5338 131.571 54.5284 130.66 56.7241C129.748 58.9197 129.278 61.2734 129.276 63.6508V144.281L297.386 243L386.4 272.616L455.625 243V144.281L297.386 45.5625Z" fill="#89A698"/>
<path d="M129.276 144.281H297.386V243H129.276V144.281Z" fill="#637D6F"/>
<path opacity="0.1" d="M249.591 124.537H129.276V371.334H249.591C254.385 371.311 258.977 369.399 262.371 366.013C265.766 362.627 267.689 358.04 267.725 353.246V142.626C267.689 137.832 265.766 133.245 262.371 129.859C258.977 126.473 254.385 124.561 249.591 124.537V124.537Z" fill="black"/>
<path opacity="0.2" d="M239.704 134.409H129.276V381.206H239.704C244.498 381.182 249.09 379.271 252.484 375.885C255.879 372.499 257.802 367.912 257.838 363.118V152.498C257.802 147.704 255.879 143.117 252.484 139.731C249.09 136.345 244.498 134.433 239.704 134.409V134.409Z" fill="black"/>
<path opacity="0.2" d="M239.704 134.409H129.276V361.463H239.704C244.498 361.439 249.09 359.527 252.484 356.141C255.879 352.755 257.802 348.168 257.838 343.374V152.498C257.802 147.704 255.879 143.117 252.484 139.731C249.09 136.345 244.498 134.433 239.704 134.409V134.409Z" fill="black"/>
<path opacity="0.2" d="M229.817 134.409H129.276V361.463H229.817C234.611 361.439 239.203 359.527 242.597 356.141C245.992 352.755 247.915 348.168 247.951 343.374V152.498C247.915 147.704 245.992 143.117 242.597 139.731C239.203 136.345 234.611 134.433 229.817 134.409V134.409Z" fill="black"/>
<path d="M48.5089 134.409H229.817C234.62 134.405 239.228 136.308 242.628 139.7C246.029 143.092 247.943 147.695 247.951 152.498V333.502C247.943 338.305 246.029 342.908 242.628 346.3C239.228 349.692 234.62 351.595 229.817 351.591H48.5089C46.1302 351.595 43.7741 351.13 41.5751 350.223C39.3762 349.316 37.3776 347.984 35.6935 346.304C34.0094 344.624 32.6729 342.629 31.7603 340.433C30.8477 338.236 30.377 335.881 30.375 333.502V152.498C30.377 150.119 30.8477 147.764 31.7603 145.567C32.6729 143.371 34.0094 141.375 35.6935 139.696C37.3776 138.016 39.3762 136.684 41.5751 135.777C43.7741 134.87 46.1302 134.405 48.5089 134.409V134.409Z" fill="url(#paint0_linear_203_121)"/>
<path d="M86.5688 301.821L124.705 242.833L89.7734 184.179H117.825L136.885 221.738C138.647 225.291 139.923 227.934 140.5 229.696H140.758C142.003 226.841 143.325 224.092 144.707 221.403L165.088 184.24H190.907L155.08 242.56L191.818 301.867H164.344L142.322 260.693C141.3 258.923 140.431 257.069 139.725 255.15H139.361C138.718 257.019 137.862 258.808 136.809 260.481L114.134 301.821H86.5688Z" fill="#21A366"/>
<path d="M437.491 45.5625H297.386V144.281H455.625V63.6508C455.623 61.2722 455.152 58.9172 454.24 56.7206C453.327 54.5239 451.99 52.5287 450.306 50.8488C448.622 49.1689 446.624 47.8374 444.425 46.9304C442.226 46.0233 439.87 45.5585 437.491 45.5625V45.5625Z" fill="#A5C9B8"/>
<path d="M297.386 243H455.625V341.719H297.386V243Z" fill="#6A7E73"/>
<defs>
<linearGradient id="paint0_linear_203_121" x1="68.2526" y1="120.194" x2="210.073" y2="365.806" gradientUnits="userSpaceOnUse">
<stop stop-color="white"/>
<stop offset="0.5" stop-color="#D1EADD"/>
<stop offset="1" stop-color="#BBDFCA"/>
</linearGradient>
</defs>
</svg> -->


<svg width="486" height="486" viewBox="0 0 486 486" fill="none" xmlns="http://www.w3.org/2000/svg">
<path d="M297.386 233.128L129.276 203.512V422.349C129.278 424.727 129.748 427.08 130.66 429.276C131.571 431.472 132.907 433.466 134.589 435.146C136.271 436.825 138.268 438.157 140.465 439.065C142.663 439.973 145.017 440.439 147.395 440.437H437.476C439.856 440.443 442.214 439.98 444.414 439.074C446.615 438.168 448.615 436.837 450.301 435.157C451.987 433.477 453.325 431.481 454.238 429.283C455.152 427.085 455.623 424.729 455.625 422.349V341.719L297.386 233.128Z" fill="#7A8D83"/>
<path d="M297.386 45.5625H147.395C145.017 45.5605 142.663 46.0268 140.465 46.9347C138.268 47.8427 136.271 49.1745 134.589 50.8542C132.907 52.5338 131.571 54.5284 130.66 56.7241C129.748 58.9197 129.278 61.2734 129.276 63.6508V144.281L297.386 243L386.4 272.616L455.625 243V144.281L297.386 45.5625Z" fill="#9ABDAC"/>
<path d="M129.276 144.281H297.386V243H129.276V144.281Z" fill="#81A792"/>
<path opacity="0.1" d="M249.591 124.537H129.276V371.334H249.591C254.385 371.311 258.977 369.399 262.371 366.013C265.766 362.627 267.689 358.04 267.725 353.246V142.626C267.689 137.832 265.766 133.245 262.371 129.859C258.977 126.473 254.385 124.561 249.591 124.537V124.537Z" fill="black"/>
<path opacity="0.2" d="M239.704 134.409H129.276V381.206H239.704C244.498 381.182 249.09 379.271 252.484 375.885C255.879 372.499 257.802 367.912 257.838 363.118V152.498C257.802 147.704 255.879 143.117 252.484 139.731C249.09 136.345 244.498 134.433 239.704 134.409V134.409Z" fill="black"/>
<path opacity="0.2" d="M239.704 134.409H129.276V361.463H239.704C244.498 361.439 249.09 359.527 252.484 356.141C255.879 352.755 257.802 348.168 257.838 343.374V152.498C257.802 147.704 255.879 143.117 252.484 139.731C249.09 136.345 244.498 134.433 239.704 134.409V134.409Z" fill="black"/>
<path opacity="0.2" d="M229.817 134.409H129.276V361.463H229.817C234.611 361.439 239.203 359.527 242.597 356.141C245.992 352.755 247.915 348.168 247.951 343.374V152.498C247.915 147.704 245.992 143.117 242.597 139.731C239.203 136.345 234.611 134.433 229.817 134.409V134.409Z" fill="black"/>
<path d="M48.5089 134.409H229.817C234.62 134.405 239.228 136.308 242.628 139.7C246.029 143.092 247.943 147.695 247.951 152.498V333.502C247.943 338.305 246.029 342.908 242.628 346.3C239.228 349.692 234.62 351.595 229.817 351.591H48.5089C46.1302 351.595 43.7741 351.13 41.5751 350.223C39.3762 349.316 37.3776 347.984 35.6935 346.304C34.0094 344.624 32.6729 342.629 31.7603 340.433C30.8477 338.236 30.377 335.881 30.375 333.502V152.498C30.377 150.119 30.8477 147.764 31.7603 145.567C32.6729 143.371 34.0094 141.375 35.6935 139.696C37.3776 138.016 39.3762 136.684 41.5751 135.777C43.7741 134.87 46.1302 134.405 48.5089 134.409V134.409Z" fill="url(#paint0_linear_203_121)"/>
<path d="M86.5688 301.821L124.705 242.833L89.7734 184.179H117.825L136.885 221.738C138.647 225.291 139.923 227.934 140.5 229.696H140.758C142.003 226.841 143.325 224.092 144.707 221.403L165.088 184.24H190.907L155.08 242.56L191.818 301.867H164.344L142.322 260.693C141.3 258.923 140.431 257.069 139.725 255.15H139.361C138.718 257.019 137.862 258.808 136.809 260.481L114.134 301.821H86.5688Z" fill="#1B7930"/>
<path d="M437.491 45.5625H297.386V144.281H455.625V63.6508C455.623 61.2722 455.152 58.9172 454.24 56.7206C453.327 54.5239 451.99 52.5287 450.306 50.8488C448.622 49.1689 446.624 47.8374 444.425 46.9304C442.226 46.0233 439.87 45.5585 437.491 45.5625V45.5625Z" fill="#BCE1D0"/>
<path d="M297.386 243H455.625V341.719H297.386V243Z" fill="#8DA899"/>
<defs>
<linearGradient id="paint0_linear_203_121" x1="68.2526" y1="120.194" x2="210.073" y2="365.806" gradientUnits="userSpaceOnUse">
<stop stop-color="white"/>
<stop offset="0.5" stop-color="#D1EADD"/>
<stop offset="1" stop-color="#BBDFCA"/>
</linearGradient>
</defs>
</svg>


