<svg xmlns="http://www.w3.org/2000/svg" width="39.179" height="45.709" viewBox="0 0 39.179 45.709">
  	<path id="Icon_metro-file-excel" data-name="Icon metro-file-excel" d="M40.015,11.9a5.935,5.935,0,0,1,1.224,1.939,5.887,5.887,0,0,1,.51,2.245V45.463A2.439,2.439,0,0,1,39.3,47.912H5.019a2.439,2.439,0,0,1-2.449-2.449V4.652A2.438,2.438,0,0,1,5.019,2.2H27.874a5.888,5.888,0,0,1,2.245.51,5.935,5.935,0,0,1,1.939,1.224ZM28.69,5.672v9.591h9.591a2.787,2.787,0,0,0-.561-1.046L29.736,6.234a2.786,2.786,0,0,0-1.046-.561Zm9.795,38.975V18.528H27.874a2.438,2.438,0,0,1-2.449-2.449V5.468H5.836V44.647H38.485ZM13.513,38.679v2.7h7.167v-2.7H18.768l2.627-4.107a3.657,3.657,0,0,0,.255-.421q.128-.242.191-.344t.089-.1h.051a.879.879,0,0,0,.128.255,1.426,1.426,0,0,0,.115.191q.064.089.153.2t.166.217l2.729,4.107H23.333v2.7h7.423v-2.7H29.021l-4.9-6.963L29.1,24.522h1.709V21.793H23.691v2.729h1.888l-2.627,4.056q-.1.179-.255.421t-.23.344l-.051.077h-.051a.877.877,0,0,0-.128-.255,3.043,3.043,0,0,0-.434-.587l-2.7-4.056h1.939V21.793h-7.4v2.729h1.734L20.2,31.46l-4.948,7.218H13.513Z" transform="translate(-2.571 -2.203)" fill="#53ad72"/>
</svg>
