<svg id="time-metaphor-svgrepo-com" xmlns="http://www.w3.org/2000/svg" width="19.531" height="18" viewBox="0 0 19.531 18">
	<g id="Layer_5_99_">
		<g id="Group_2405" data-name="Group 2405" transform="translate(0 0)">
		<path id="Path_952" data-name="Path 952" d="M18,22.733c0-.128.051-.426.528-.426h.814c.352,0,.1-.3.1-.3l-2.22-3.5a.132.132,0,0,0-.229.019L14.8,22s-.275.309.1.309h.824c.245,0,.527.059.527.523a7.249,7.249,0,1,1-4.195-6.613.864.864,0,0,0,.368.082.872.872,0,0,0,.369-1.663A9,9,0,1,0,9,31.8a9.017,9.017,0,0,0,9-8.964S18,22.758,18,22.733Z" transform="translate(0 -13.797)" fill="#a3a3a3"/>
		<path id="Path_953" data-name="Path 953" d="M145.844,114.89a.215.215,0,0,1-.215-.215v-3.641a.215.215,0,0,0-.215-.215h-.808a.215.215,0,0,0-.215.215v4.879a.215.215,0,0,0,.215.215h4.781a.215.215,0,0,0,.215-.215V115.1a.215.215,0,0,0-.215-.215h-3.543Z" transform="translate(-136.383 -105.437)" fill="#a3a3a3"/>
		</g>
	</g>
</svg>
