<svg xmlns="http://www.w3.org/2000/svg" xmlns:xlink="http://www.w3.org/1999/xlink" width="297.311" height="213.52" viewBox="0 0 297.311 213.52">
  <defs>
    <linearGradient id="linear-gradient" x1="0.153" y1="0.879" x2="0.74" y2="-0.035" gradientUnits="objectBoundingBox">
      <stop offset="0" stop-opacity="0"/>
      <stop offset="0.99" stop-color="#552800"/>
    </linearGradient>
    <linearGradient id="linear-gradient-2" x1="-0.244" y1="1.673" x2="0.581" y2="0.275" gradientUnits="objectBoundingBox">
      <stop offset="0" stop-color="#297600"/>
      <stop offset="0.99" stop-color="#294900"/>
    </linearGradient>
    <linearGradient id="linear-gradient-3" x1="-0.244" y1="1.673" x2="0.581" y2="0.275" xlink:href="#linear-gradient-2"/>
  </defs>
  <g transform="translate(-14.293 -30.136)">
    <path d="M20.167,150.883l130.4-74.215a20.91,20.91,0,0,1,20.868.109l134.389,78.255a11.619,11.619,0,0,1-.058,20.125L180.349,247.167a28.021,28.021,0,0,1-27.93,0L20.125,171.058a11.619,11.619,0,0,1,.042-20.175Z" transform="translate(0 -7.239)" fill="#297600"/>
    <path d="M139,246.415l6.97-4.716,50.5-41.736-11.953-5.133c-7.17,1.92-20.033,7.512-26.711,10.559-9.858,4.541-19.841,8.656-29.941,12.629q-8.389,3.339-16.8,6.578C121.11,230.915,130.125,238.569,139,246.415Z" transform="translate(-15.994 -27.221)" opacity="0.32" fill="url(#linear-gradient)"/>
    <path d="M203.672,190.589l-10.092-4.457V109.063l13.255-4.733" transform="translate(-29.633 -12.263)" fill="#7f1d18"/>
    <path d="M211.989,92.33v90.709l-6.319,5.568v-87.37" transform="translate(-31.632 -10.28)" fill="#aa3529"/>
    <path d="M141.486,100.915V67.351s-.885-5.96,9.716-11.26,45.709-25.834,45.709-25.834,17.22-3.088,26.494,22.078a49.857,49.857,0,0,1,3.088,13.188V91.858l-51.009,28.263Z" transform="translate(-21.02)" fill="#296eaf"/>
    <path d="M143.85,104.484V72.923s1.1-8.831,10.158-5.743,18.547,15.234,20.534,26.494v28.48l-29.591-17.22" transform="translate(-21.414 -6.014)" fill="#e98669"/>
    <path d="M138.8,115.61l-19.875,24.065s-9.057,13.915,5.743,21.861,28.706-8.614,28.706-8.614l17-19.457Z" transform="translate(-16.841 -14.128)" fill="#296eaf"/>
    <path d="M136.721,114.93l-19.875,24.065s-9.057,13.915,5.743,21.861,28.706-8.614,28.706-8.614l16.978-19.424Z" transform="translate(-16.497 -14.015)" fill="#aa3529"/>
    <path d="M171.871,85.431c-4.057-7.454-11.644-16.269-17.863-18.364-9.057-3.122-10.158,5.676-10.158,5.676v31.719C158.249,94.571,156.546,96.266,171.871,85.431Z" transform="translate(-21.414 -5.993)" fill="#cd725f"/>
    <ellipse cx="14.19" cy="11.327" rx="14.19" ry="11.327" transform="translate(166.68 93.003) rotate(-63.74)" fill="#ffd7cb"/>
    <path d="M219.692,86.765a4.808,4.808,0,0,1,1.828,4.073,8.706,8.706,0,0,1-.968,4.224,5.142,5.142,0,0,1-2.5,2.613,1.135,1.135,0,0,1-1.519-.317,3.339,3.339,0,0,1-1.6,1.669,1.544,1.544,0,0,1-1.845-.359,3.764,3.764,0,0,1-.743-2.638,6.72,6.72,0,0,1,.776-3.389,4.24,4.24,0,0,1,2.02-2.028,1.486,1.486,0,0,1,1.4.067l.1-.526,1.669-.684-.367,5.075v.893c0,.25.125.409.359.309a2.78,2.78,0,0,0,1.194-1.494,6.119,6.119,0,0,0,.526-2.721,3.564,3.564,0,0,0-1.369-3.072,3.18,3.18,0,0,0-3.172-.125,7.045,7.045,0,0,0-3.339,3.155,9.182,9.182,0,0,0-1.285,4.925,4.9,4.9,0,0,0,1.394,3.639q1.336,1.252,3.689.267a11,11,0,0,0,3.723-2.813l.618,1.544a12.587,12.587,0,0,1-4.29,3.147q-3.072,1.277-4.942-.292A6.355,6.355,0,0,1,209,97.14a11.6,11.6,0,0,1,1.77-6.394,9.791,9.791,0,0,1,4.558-4.174A4.317,4.317,0,0,1,219.692,86.765Zm-3.639,8.956a4.123,4.123,0,0,0,.4-1.861,1.344,1.344,0,0,0-.384-1.06.743.743,0,0,0-.835-.125,1.761,1.761,0,0,0-.835.977,3.965,3.965,0,0,0-.317,1.736,2.438,2.438,0,0,0,.292,1.235.5.5,0,0,0,.676.259,2.145,2.145,0,0,0,1.027-1.16" transform="translate(-32.182 -9.247)" fill="#aa3529"/>
    <rect width="1.953" height="40.509" rx="0.977" transform="translate(197.193 57.938) rotate(63.63)" fill="#fff"/>
    <path d="M232.091,65.53s7.137,11.36,7.4,12.237-19.365-6.3-19.365-6.3" transform="translate(-34.022 -5.85)" fill="#fff"/>
    <path d="M166.458,76.495c-3.339,2.5-7.8,1.377-11.611.835a22.538,22.538,0,0,1-4.674-.927,12.471,12.471,0,0,0,4.065-2.028A13.23,13.23,0,0,0,161,75.885a9.549,9.549,0,0,0,4.733,0,.432.432,0,0,0-.225-.835,8.656,8.656,0,0,1-2.78.25.442.442,0,0,0-.476-.376.376.376,0,0,0-.217-.058,10.726,10.726,0,0,1-5.426-1.252,7.229,7.229,0,0,0,3.531-1.778c.392-.367-.2-.952-.593-.593a6.427,6.427,0,0,1-3.656,1.669,12.922,12.922,0,0,0,2.287-3.506c.217-.484-.5-.91-.718-.417a12.253,12.253,0,0,1-2.454,3.614,10.659,10.659,0,0,1-3.573-5.292.434.434,0,0,0-.835.225,11.569,11.569,0,0,0,3.614,5.451h-.776a33.572,33.572,0,0,1-6.411-5.384c-.376-.384-.968.209-.593.593a37.971,37.971,0,0,0,5.4,4.733c-2.654-.2-5.259-1.052-6.4-3.689-.217-.492-.935-.067-.718.417,1.219,2.813,4.073,3.873,6.962,4.09.534,0,1.068.067,1.594.083l.167.1A11.619,11.619,0,0,1,149,75.86c-1.669-.893-3.255-1.995-4.858-2.988-.459-.284-.876.442-.417.718,1.26.776,2.5,1.669,3.84,2.462a12.3,12.3,0,0,1-3.5-.225c-.526-.109-.751.693-.225.835a13.1,13.1,0,0,0,4.958.092c.367.184.743.359,1.127.509a27.785,27.785,0,0,0,6.2,1.11c3.639.518,7.6,1.185,10.768-1.127C167.335,76.9,166.917,76.186,166.458,76.495Z" transform="translate(-21.36 -6.097)" fill="#fff"/>
    <path d="M177.941,118.663a64.444,64.444,0,0,1-6.853,1.185q1.16-1.728,2.237-3.5A23.849,23.849,0,0,0,177.5,113.6c.417-.342-.175-.927-.593-.593a22.671,22.671,0,0,1-2.788,1.945q1.995-3.439,3.689-7.045c.225-.484-.492-.91-.718-.417a89.425,89.425,0,0,1-4.391,8.247,22.587,22.587,0,0,1-13.973,2.062c-.526-.092-.751.71-.225.835a23.5,23.5,0,0,0,13.4-1.586c-.626,1.01-1.285,1.995-1.953,2.98-2.446.292-4.891.543-7.287.876-.526.075-.3.876.225.835,2.112-.3,4.274-.526,6.427-.776-.618.885-1.235,1.761-1.886,2.621-.326.426.4.835.718.417q1.177-1.565,2.287-3.18a68.781,68.781,0,0,0,7.7-1.294A.44.44,0,0,0,177.941,118.663Z" transform="translate(-23.786 -12.749)" fill="#fff"/>
    <path d="M243.057,164.646a45.283,45.283,0,0,0,6.027-2.621,17.312,17.312,0,0,0,4.549-2.98.184.184,0,0,0-.05-.15c-4.015,1.528-8.6-.71-12.788-.518a13.744,13.744,0,0,0-8.022,2.629,14.858,14.858,0,0,0-2.1,2.337C234.6,165.264,238.591,166.074,243.057,164.646Z" transform="translate(-35.764 -21.194)" fill="#f9b246"/>
    <path d="M97.97,152.455a28.2,28.2,0,0,0-.785,4.015,10.776,10.776,0,0,0-.075,3.389H97.2c.634-2.6,3.406-4.174,4.783-6.377a8.464,8.464,0,0,0,1.486-5.008,9.249,9.249,0,0,0-.451-1.9,9.891,9.891,0,0,0-5.05,5.885Z" transform="translate(-13.672 -19.245)" fill="#e98669"/>
    <path d="M202.3,233.378A39.279,39.279,0,0,0,197.89,237a15.025,15.025,0,0,0-3.08,3.573l.075.117c2.988-2.229,7.345-1.452,10.793-2.613a11.805,11.805,0,0,0,6.06-4.107,12.889,12.889,0,0,0,1.2-2.446A13.724,13.724,0,0,0,202.3,233.378Z" transform="translate(-29.837 -33.232)" fill="#7dc156"/>
    <path d="M107.385,191.532c-1.252-2.12-2.671-4.24-5.117-5.05-3.1-1.035-6.144.476-8.848,1.9.376,1.669,2.012,3.013,3.222,4.007a19.507,19.507,0,0,0,5.6,3.339,25.651,25.651,0,0,0,10.133,1.5C110.223,196.173,108.57,193.536,107.385,191.532Z" transform="translate(-13.079 -25.785)" fill="#c95c43"/>
    <path d="M292.46,196.45c.977-.167,1.77-.142,2.145.3-.685,6.761,4.174,3.456,6.31,5.167l1.836-.768q5.559-5.568,11.177-11.06c-1.285-.927-2.5-1.911-3.773-2.88A118.4,118.4,0,0,0,292.46,196.45Z" transform="translate(-45.977 -25.962)" opacity="0.48" fill="url(#linear-gradient-2)"/>
    <path d="M317.364,184.142V150.82H310.11v33.614A9.547,9.547,0,0,0,317.364,184.142Z" transform="translate(-48.894 -19.947)" fill="#a83f1e"/>
    <path d="M315.34,150.93v34.132a7.3,7.3,0,0,0,2.888-.835v-33.3Z" transform="translate(-49.759 -19.965)" fill="#7f2b14"/>
    <path d="M320.307,146.717c4.516-.217,10.292-1.836,8.6-6.87-1-2.972-4.073-5.593-6.043-7.946s-1.528-3.932-3.723-6.244c1.87.075,4.583-.275,5.008-2.129.4-1.619-8.347-11.569-12.1-15.6a2.412,2.412,0,0,0-3.272-.242c-4.491,3.581-15.968,13.1-14.365,15.86.968,1.669,2.922,2.229,4.666,2.379-4.132,4.174-8.831,9.315-9.307,14.825-.417,4.783,4.474,5.417,9.032,5.175-3.147,3.823-11.686,14.724-9.741,18.038,1.027,1.745,4.341,2.321,6.3,2.713a62.6,62.6,0,0,0,12.921,1.244,39.808,39.808,0,0,0,12.855-1.937,18,18,0,0,0,6.269-3.447c2-1.886.885-3.89-.417-5.785C324.756,153.428,322.536,150.072,320.307,146.717Z" transform="translate(-45.368 -12.731)" fill="#77c457"/>
    <path d="M323.3,129.275s-5.492-.359-9.324-.259l19.382,15.926s.518-1.853-2.9-5.643a77.97,77.97,0,0,1-7.154-10.025Z" transform="translate(-49.534 -16.34)" fill="#0d5b23"/>
    <path d="M324.31,154.55H313l18.405,15.81a2.8,2.8,0,0,0,.835-3.639C331.03,164.575,324.31,154.55,324.31,154.55Z" transform="translate(-49.372 -20.564)" fill="#0d5b23"/>
    <path d="M48.16,187.666c.6-.1,1.085-.083,1.319.184-.417,4.174,2.563,2.12,3.873,3.164l1.127-.467q3.406-3.414,6.853-6.786c-.785-.568-1.553-1.169-2.312-1.77a72.621,72.621,0,0,0-10.86,5.676Z" transform="translate(-5.598 -25.099)" opacity="0.48" fill="url(#linear-gradient-3)"/>
    <path d="M63.432,180.114V159.68H59V180.3A5.951,5.951,0,0,0,63.432,180.114Z" transform="translate(-7.389 -21.412)" fill="#a83f1e"/>
    <path d="M62.19,159.75v20.926a4.483,4.483,0,0,0,1.77-.492V159.75Z" transform="translate(-7.917 -21.423)" fill="#7f2b14"/>
    <path d="M65.244,157.206c2.763-.134,6.31-1.127,5.275-4.174-.609-1.82-2.5-3.431-3.706-4.875s-.935-2.412-2.287-3.823c1.144.05,2.813-.167,3.088-1.3.25-.993-5.1-7.1-7.412-9.566a1.477,1.477,0,0,0-2-.15c-2.755,2.2-9.791,8.03-8.815,9.716a3.506,3.506,0,0,0,2.863,1.461c-2.5,2.5-5.417,5.709-5.709,9.09-.25,2.93,2.746,3.339,5.534,3.172-1.928,2.346-7.17,9.032-5.977,11.06.634,1.068,2.663,1.427,3.865,1.669a38.4,38.4,0,0,0,7.921.768,24.415,24.415,0,0,0,7.88-1.185,11.035,11.035,0,0,0,3.84-2.112c1.227-1.16.543-2.387-.259-3.548Q67.276,160.24,65.244,157.206Z" transform="translate(-5.228 -17.001)" fill="#77c457"/>
    <path d="M67.078,146.467s-3.339-.217-5.718-.159l11.886,9.758s.317-1.135-1.786-3.456a47.813,47.813,0,0,1-4.382-6.143Z" transform="translate(-7.779 -19.2)" fill="#0d5b23"/>
    <path d="M67.7,162H60.79l11.285,9.7a1.72,1.72,0,0,0,.492-2.229C71.817,168.118,67.7,162,67.7,162Z" transform="translate(-7.685 -21.795)" fill="#0d5b23"/>
  </g>
</svg>