<svg xmlns="http://www.w3.org/2000/svg" viewBox="0 0 24 21.73"><path d="M23.21,1.13a.63.63,0,0,0-.19,0L12,3.8,1,1.16A.78.78,0,0,0,0,1.74a1.1,1.1,0,0,0,0,.18V19.4a.78.78,0,0,0,.6.76l11.23,2.69.17,0a.58.58,0,0,0,.19,0L23.4,20.16a.78.78,0,0,0,.6-.76V1.92a.79.79,0,0,0-.79-.79Zm-.79,17.65h0L12,21.27h0V5.41h0l.36-.09,10.06-2.4Z" transform="translate(0 -1.13)" fill="currentColor"/><path d="M13.8,12.27l4.09-1a.59.59,0,0,0,.45-.58V7a.59.59,0,0,0-.59-.6l-.14,0-4.09,1a.59.59,0,0,0-.45.58v3.68a.59.59,0,0,0,.59.6Z" transform="translate(0 -1.13)" fill="currentColor"/><path d="M13.09,14.78a.78.78,0,0,0,.95.57h0L20.7,13.7a.78.78,0,1,0-.38-1.52h0l-6.66,1.65a.78.78,0,0,0-.57.95Z" transform="translate(0 -1.13)" fill="currentColor"/><path d="M20.32,15l-6.66,1.65A.78.78,0,1,0,14,18.21l6.66-1.65A.78.78,0,1,0,20.32,15Z" transform="translate(0 -1.13)" fill="currentColor"/></svg>