<svg id="news-svgrepo-com" xmlns="http://www.w3.org/2000/svg" width="19.873" height="18" viewBox="0 0 19.873 18">
	<g id="Group_2084" data-name="Group 2084">
		<g id="Group_2083" data-name="Group 2083" transform="translate(0 0)">
		<path id="Path_926" data-name="Path 926" d="M19.223,21.593a.654.654,0,0,0-.152.018L9.936,23.8.8,21.611a.649.649,0,0,0-.8.632V36.721a.65.65,0,0,0,.5.633l9.3,2.223a.657.657,0,0,0,.143.016.642.642,0,0,0,.15-.018l9.286-2.221a.65.65,0,0,0,.5-.633V22.244A.651.651,0,0,0,19.223,21.593Zm-.651,14.615h0L9.937,38.274h0V25.134h0l.3-.072,8.333-1.993Z" transform="translate(0 -21.593)" fill="#2a5298"/>
		<path id="Path_927" data-name="Path 927" d="M250.241,127.362l3.388-.83a.491.491,0,0,0,.374-.477V123a.491.491,0,0,0-.608-.477l-3.388.83a.491.491,0,0,0-.374.477v3.051A.491.491,0,0,0,250.241,127.362Z" transform="translate(-238.809 -118.137)" fill="#2a5298"/>
		<path id="Path_928" data-name="Path 928" d="M249.652,234.23a.65.65,0,0,0,.789.473l5.513-1.368a.65.65,0,1,0-.316-1.262l-5.513,1.368A.65.65,0,0,0,249.652,234.23Z" transform="translate(-238.808 -222.928)" fill="#2a5298"/>
		<path id="Path_929" data-name="Path 929" d="M255.638,286.745l-5.513,1.368a.65.65,0,1,0,.316,1.262l5.513-1.368a.65.65,0,1,0-.316-1.262Z" transform="translate(-238.808 -275.229)" fill="#2a5298"/>
		</g>
	</g>
</svg>
