<svg id="_6._Box_Denied" data-name="6. Box Denied" xmlns="http://www.w3.org/2000/svg" width="15" height="15" viewBox="0 0 15 15">
	<path id="Path_1065" data-name="Path 1065" d="M10,1h2.813V3.4a.408.408,0,0,1-.408.408h-2A.408.408,0,0,1,10,3.4Z" transform="translate(-5.313 -0.531)" fill="#2a5298"/>
	<path id="Path_1066" data-name="Path 1066" d="M5.156,12.188H1.406A1.406,1.406,0,0,1,0,10.781V1.406A1.406,1.406,0,0,1,1.406,0h9.375a1.406,1.406,0,0,1,1.406,1.406v3.75a.469.469,0,0,1-.937,0V1.406a.469.469,0,0,0-.469-.469H1.406a.469.469,0,0,0-.469.469v9.375a.469.469,0,0,0,.469.469h3.75a.469.469,0,0,1,0,.938Z" fill="#2a5298"/>
	<path id="Path_1067" data-name="Path 1067" d="M5.406,20.938H4.469a.469.469,0,0,1,0-.937h.938a.469.469,0,0,1,0,.938Z" transform="translate(-2.125 -10.625)" fill="#2a5298"/>
	<path id="Path_1068" data-name="Path 1068" d="M18.219,22.438a4.219,4.219,0,1,1,4.219-4.219A4.219,4.219,0,0,1,18.219,22.438Zm0-7.5A3.281,3.281,0,1,0,21.5,18.219,3.281,3.281,0,0,0,18.219,14.938Z" transform="translate(-7.438 -7.438)" fill="#de9d24"/>
	<circle id="Ellipse_37" data-name="Ellipse 37" cx="2.344" cy="2.344" r="2.344" transform="translate(8.438 8.438)" fill="rgba(222,157,36,0.1)"/>
	<path id="Path_1069" data-name="Path 1069" d="M22.064,21.4l.609-.6a.471.471,0,1,0-.666-.666l-.6.609-.6-.609a.471.471,0,1,0-.666.666l.609.6-.609.6a.471.471,0,1,0,.666.666l.6-.609.6.609a.471.471,0,1,0,.666-.666Z" transform="translate(-10.622 -10.623)" fill="#de9d24"/>
</svg>
