<svg xmlns="http://www.w3.org/2000/svg" width="21" height="15.957" viewBox="0 0 21 15.957">
	<g transform="translate(0.5 -7.5)">
		<rect width="4.375" height="0.625" transform="translate(5.938 17.688)" fill="none" stroke="#2a5298" stroke-linecap="round" stroke-linejoin="bevel" stroke-width="1"/>
		<rect width="8.125" height="0.625" transform="translate(5.938 15.813)" fill="none" stroke="#2a5298" stroke-linecap="round" stroke-linejoin="bevel" stroke-width="1"/>
		<rect width="8.125" height="0.625" transform="translate(5.938 13.938)" fill="none" stroke="#2a5298" stroke-linecap="round" stroke-linejoin="bevel" stroke-width="1"/>
		<rect width="8.125" height="0.625" transform="translate(5.938 12.063)" fill="none" stroke="#2a5298" stroke-linecap="round" stroke-linejoin="bevel" stroke-width="1"/>
		<path d="M19.688,8H.313A.312.312,0,0,0,0,8.313V10.5a.312.312,0,0,0,.313.313H2.5V23l2.813-1.25L7.813,23,10,21.75,12.188,23l2.5-1.25L17.5,23V10.812h2.188A.312.312,0,0,0,20,10.5V8.313A.312.312,0,0,0,19.688,8ZM2.5,10.187H.625V8.625H2.5ZM16.875,22.038l-1.934-.859-.27-.12-.264.132-2.2,1.1-1.9-1.084L10,21.03l-.31.177-1.9,1.084-2.2-1.1-.264-.132-.27.12-1.934.859V8.625h13.75Zm2.5-11.851H17.5V8.625h1.875Z" fill="none" stroke="#2a5298" stroke-linecap="round" stroke-linejoin="bevel" stroke-width="1"/>
	</g>
</svg>
