<?xml version="1.0" encoding="utf-8"?>
<!-- Generator: Adobe Illustrator 23.0.1, SVG Export Plug-In . SVG Version: 6.00 Build 0)  -->
<svg version="1.1" id="Layer_1" xmlns="http://www.w3.org/2000/svg" xmlns:xlink="http://www.w3.org/1999/xlink" x="0px" y="0px"
	 viewBox="0 0 512 512" style="enable-background:new 0 0 512 512;" xml:space="preserve">
<style type="text/css">
	.st0{fill:#FFFFFF;stroke:#000000;stroke-miterlimit:10;}
	.st1{fill:#FF0000;}
</style>
<g>
	<circle class="st0" cx="258.5" cy="201" r="159"/>
	<path class="st1" d="M256,300c57.9,0,105-47.1,105-105S313.9,90,256,90s-105,47.1-105,105S198.1,300,256,300z M206.6,184.4
		l34.4,34.4l64.4-64.4l21.2,21.2L241,261.2l-55.6-55.6L206.6,184.4z"/>
	<path class="st1" d="M258.5,512l155.9-199.9l0.2-0.2C440,278,453.5,237.6,453.5,195c0-107.5-87.5-195-195-195s-195,87.5-195,195
		c0,42.6,13.5,83,39.1,117.1L258.5,512z M258.5,60c74.4,0,135,60.6,135,135s-60.6,135-135,135s-135-60.6-135-135S184.1,60,258.5,60z
		"/>
</g>
</svg>
