<svg xmlns="http://www.w3.org/2000/svg" width="18" height="18" viewBox="0 0 18 18">
  <g transform="translate(-3 -3)">
    <path d="M6.25,3h11.5a3.25,3.25,0,0,1,3.245,3.066L21,6.25v11.5a3.25,3.25,0,0,1-3.066,3.245L17.75,21H6.25a3.25,3.25,0,0,1-3.245-3.066L3,17.75V6.25A3.25,3.25,0,0,1,6.066,3.005ZM8.325,14.5H4.5v3.25a1.75,1.75,0,0,0,1.606,1.744l.144.006h11.5a1.75,1.75,0,0,0,1.744-1.606l.006-.144V14.5H15.675A3.752,3.752,0,0,1,12.2,17.495L12,17.5a3.752,3.752,0,0,1-3.632-2.812Zm9.425-10H6.25A1.75,1.75,0,0,0,4.506,6.106L4.5,6.25V13H9a.75.75,0,0,1,.743.648l.007.1a2.25,2.25,0,0,0,4.495.154l.005-.154a.75.75,0,0,1,.648-.743L15,13h4.5V6.25a1.75,1.75,0,0,0-1.606-1.744Zm-11,5h10.5a.75.75,0,0,1,.1,1.493l-.1.007H6.75a.75.75,0,0,1-.1-1.493l.1-.007h0Zm0-3h10.5a.75.75,0,0,1,.1,1.493L17.25,8H6.75a.75.75,0,0,1-.1-1.493l.1-.007h0Z" fill="#2a5298"/>
  </g>
</svg>