<svg xmlns="http://www.w3.org/2000/svg" width="24" height="24" viewBox="0 0 24 24"><path d="M1.55,4.16h20.9a1.3,1.3,0,0,1,1.31,1.31h0a1.3,1.3,0,0,1-1.31,1.3H1.55A1.3,1.3,0,0,1,.24,5.47h0A1.3,1.3,0,0,1,1.55,4.16Z" fill="#004281"/><path d="M1.55,10.69H14A1.31,1.31,0,0,1,15.27,12h0A1.31,1.31,0,0,1,14,13.31H1.55A1.31,1.31,0,0,1,.24,12h0A1.31,1.31,0,0,1,1.55,10.69Z" fill="#004281"/><path d="M1.55,17.23h20.9a1.3,1.3,0,0,1,1.31,1.3h0a1.3,1.3,0,0,1-1.31,1.31H1.55A1.3,1.3,0,0,1,.24,18.53h0A1.3,1.3,0,0,1,1.55,17.23Z" fill="#004281"/><path d="M20.49,12l3.27-2V14Z" fill="#004281"/></svg>