<svg id="_5._Box_Check" data-name="5. Box Check" xmlns="http://www.w3.org/2000/svg" width="20" height="20" viewBox="0 0 20 20">
	<path id="Path_1060" data-name="Path 1060" d="M10,1h3.75V4.206a.544.544,0,0,1-.544.544H10.544A.544.544,0,0,1,10,4.206Z" transform="translate(-3.75 -0.375)" fill="#707070"/>
	<path id="Path_1061" data-name="Path 1061" d="M6.875,16.25h-5A1.875,1.875,0,0,1,0,14.375V1.875A1.875,1.875,0,0,1,1.875,0h12.5A1.875,1.875,0,0,1,16.25,1.875v5a.625.625,0,0,1-1.25,0v-5a.625.625,0,0,0-.625-.625H1.875a.625.625,0,0,0-.625.625v12.5A.625.625,0,0,0,1.875,15h5a.625.625,0,0,1,0,1.25Z" fill="#707070"/>
	<path id="Path_1062" data-name="Path 1062" d="M5.875,21.25H4.625a.625.625,0,0,1,0-1.25h1.25a.625.625,0,0,1,0,1.25Z" transform="translate(-1.5 -7.5)" fill="#707070"/>
	<path id="Path_1063" data-name="Path 1063" d="M19.625,25.25a5.625,5.625,0,1,1,5.625-5.625A5.625,5.625,0,0,1,19.625,25.25Zm0-10A4.375,4.375,0,1,0,24,19.625,4.375,4.375,0,0,0,19.625,15.25Z" transform="translate(-5.25 -5.25)" fill="#707070"/>
	<circle id="Ellipse_36" data-name="Ellipse 36" cx="3.125" cy="3.125" r="3.125" transform="translate(11.25 11.25)" fill="#707070"/>
	<path id="Path_1064" data-name="Path 1064" d="M21.873,23.748a.625.625,0,0,1-.444-.181l-1.25-1.25a.628.628,0,0,1,.887-.887l.806.813L23.93,20.18a.628.628,0,0,1,.887.887l-2.5,2.5a.625.625,0,0,1-.444.181Z" transform="translate(-7.498 -7.498)" fill="#fff"/>
</svg>
