<svg xmlns="http://www.w3.org/2000/svg" width="17.901" height="19.947" viewBox="0 0 17.901 19.947">
  	<path d="M21.151,7.109V17.338A4.865,4.865,0,0,1,16.292,22.2H12.2a.767.767,0,1,1,0-1.534h4.092a3.329,3.329,0,0,0,3.324-3.324V7.109a3.329,3.329,0,0,0-3.324-3.324H12.2a.767.767,0,1,1,0-1.534h4.092a4.865,4.865,0,0,1,4.859,4.859Zm-6.363,4.572L10.7,7.59A.767.767,0,1,0,9.612,8.675l2.781,2.781H4.017a.767.767,0,0,0,0,1.534h8.377L9.613,15.773A.767.767,0,1,0,10.7,16.858l4.092-4.092a.767.767,0,0,0,0-1.085Z" transform="translate(-3.25 -2.25)" fill="#fff"/>
</svg>
