<svg xmlns="http://www.w3.org/2000/svg" viewBox="0 0 18.022 22.557">
  <g transform="translate(0)">
    <path d="M4.545,0a.73.73,0,0,0-.716.575,1.413,1.413,0,0,1-.282.615,1.066,1.066,0,0,1-.908.333,1.083,1.083,0,0,1-.908-.333A1.413,1.413,0,0,1,1.45.575.73.73,0,0,0,.734,0h0A.735.735,0,0,0,.018.9,2.519,2.519,0,0,0,2.639,2.988,2.514,2.514,0,0,0,5.261.9.738.738,0,0,0,4.545,0Z" transform="translate(6.356 19.569)" fill="#a8a8a8"/>
    <path d="M17.8,16.7c-.868-1.144-2.576-1.815-2.576-6.94,0-5.26-2.323-7.374-4.488-7.882-.2-.051-.35-.118-.35-.333V1.387A1.383,1.383,0,0,0,9.029,0H8.995A1.383,1.383,0,0,0,7.642,1.387V1.55c0,.209-.147.282-.35.333C5.122,2.4,2.8,4.5,2.8,9.765c0,5.125-1.708,5.79-2.576,6.94a1.119,1.119,0,0,0,.9,1.793H16.916A1.12,1.12,0,0,0,17.8,16.7Zm-2.2.327H2.449a.247.247,0,0,1-.186-.412,6.83,6.83,0,0,0,1.184-1.883,12.776,12.776,0,0,0,.806-4.973A8.646,8.646,0,0,1,5.432,4.871,3.617,3.617,0,0,1,7.614,3.315a1.976,1.976,0,0,0,1.049-.592.446.446,0,0,1,.671-.011,2.043,2.043,0,0,0,1.06.6,3.617,3.617,0,0,1,2.182,1.556,8.646,8.646,0,0,1,1.178,4.894,12.776,12.776,0,0,0,.806,4.973,6.908,6.908,0,0,0,1.212,1.911A.233.233,0,0,1,15.6,17.032Z" fill="#a8a8a8"/>
  </g>
</svg>