<svg xmlns="http://www.w3.org/2000/svg" xmlns:xlink="http://www.w3.org/1999/xlink" viewBox="0 0 160 110.34"><defs><linearGradient id="a" x1="-164.43" y1="305.14" x2="-164.43" y2="303.17" gradientTransform="matrix(18, 0, 0, -26.02, 3012, 7970.23)" gradientUnits="userSpaceOnUse"><stop offset="0" stop-color="#2a5298"/><stop offset="1" stop-color="#8e2de2"/></linearGradient></defs><path d="M96.33,0V12.93a3.62,3.62,0,0,1-3.62,3.62H66.85a3.62,3.62,0,0,1-3.62-3.62V0H9.93A10.15,10.15,0,0,0-.22,10.15V100.2A10.15,10.15,0,0,0,9.93,110.34H149.64a10.14,10.14,0,0,0,10.14-10.14h0v-90A10.14,10.14,0,0,0,149.64,0H96.33Z" transform="translate(0.22 0)" fill="#e7eced"/><path d="M66.36,71.24l-7.42-3.79a1.51,1.51,0,0,1-.83-1.35V63.83A12.45,12.45,0,0,0,65.17,55,3.93,3.93,0,0,0,68,51.27v-2a3.94,3.94,0,0,0-2.12-3.48c-.87-7.41-5.76-10.4-13.64-10.4-.37,0-.74,0-1.09,0a11.85,11.85,0,0,1-7.61-1.79,9.67,9.67,0,0,1-2.25-2,.4.4,0,0,0-.56-.08.41.41,0,0,0-.15.36c.08.69.2,1.49.37,2.37.65,3.27.26,2.79-1,5.87a20.19,20.19,0,0,0-1.36,5.61,4,4,0,0,0-2.11,3.48v2A3.94,3.94,0,0,0,39.23,55a12.45,12.45,0,0,0,7.06,8.82v2.25a1.52,1.52,0,0,1-.84,1.36l-7.61,3.75a6.45,6.45,0,0,0-3.37,5.67v2.61c0,2.23,7.94,3.32,17.73,3.32s17.73-1.09,17.73-3.32V77A6.45,6.45,0,0,0,66.36,71.24Z" transform="translate(0.22 0)" fill="url(#a)"/><path d="M123.69,73.47a2.09,2.09,0,0,0-.57,1.4,2,2,0,0,0,.57,1.4,2,2,0,1,0,0-2.8Z" transform="translate(0.22 0)" fill="#afb6bb"/><path d="M81.75,43.39h19.7a2,2,0,0,0,0-3.94H81.75a2,2,0,0,0,0,3.94Z" transform="translate(0.22 0)" fill="#afb6bb"/><path d="M83.72,72.94h-2a2,2,0,0,0,0,3.94h2a2,2,0,0,0,0-3.94Z" transform="translate(0.22 0)" fill="#afb6bb"/><path d="M95.54,72.94H91.6a2,2,0,0,0,0,3.94h3.94a2,2,0,0,0,0-3.94Z" transform="translate(0.22 0)" fill="#afb6bb"/><path d="M105.39,72.94h-2a2,2,0,1,0,0,3.94h2a2,2,0,1,0,0-3.94Z" transform="translate(0.22 0)" fill="#afb6bb"/><path d="M117.21,72.94h-3.94a2,2,0,0,0,0,3.94h3.94a2,2,0,1,0,0-3.94Z" transform="translate(0.22 0)" fill="#afb6bb"/><path d="M81.75,55.21h43.34a2,2,0,0,0,0-3.94H81.75a2,2,0,0,0,0,3.94Z" transform="translate(0.22 0)" fill="#afb6bb"/><path d="M125.09,63.09H81.75a2,2,0,0,0,0,3.94h43.34a2,2,0,0,0,0-3.94Z" transform="translate(0.22 0)" fill="#afb6bb"/><path d="M63.48,0H96.55a0,0,0,0,1,0,0V12.55a4,4,0,0,1-4,4H67.48a4,4,0,0,1-4-4V0A0,0,0,0,1,63.48,0Z" fill="#ad5389"/></svg>