<svg xmlns="http://www.w3.org/2000/svg" viewBox="0 0 24 24"><path d="M5,.42A2.39,2.39,0,0,0,2.58,2.81V21.19A2.39,2.39,0,0,0,5,23.58H19a2.39,2.39,0,0,0,2.39-2.39V6.08a2,2,0,0,0-.15-.88,2.37,2.37,0,0,0-.48-.68h0L17.3,1.09h0A2.59,2.59,0,0,0,15.5.42H5Z" fill="#ff2116"/><path d="M5,1.2H15.52a2.38,2.38,0,0,1,.73.14,2.68,2.68,0,0,1,.51.32h0l3.48,3.41a1.84,1.84,0,0,1,.31.45,1.7,1.7,0,0,1,.08.52V21.19A1.59,1.59,0,0,1,19,22.8H5a1.6,1.6,0,0,1-1.61-1.61V2.81A1.6,1.6,0,0,1,5,1.2Z" fill="#f5f5f5"/><path d="M7.28,14.21c-.54-.54,0-1.28,1.63-2.07l1-.5.39-.85c.22-.47.54-1.24.71-1.7l.32-.85-.22-.63a4.39,4.39,0,0,1-.19-2.34c.23-.56,1-.51,1.3.1a3.79,3.79,0,0,1-.07,2.4l-.23.89.2.34c.12.19.44.64.73,1l.54.67.67-.09c2.12-.28,2.85.2,2.85.87,0,.86-1.67.93-3.07-.06a3.71,3.71,0,0,1-.53-.44s-.88.18-1.32.3-.67.19-1.32.41c0,0-.23.34-.38.58a6.29,6.29,0,0,1-1.67,1.92A1.16,1.16,0,0,1,7.28,14.21Zm.85-.3a6.49,6.49,0,0,0,1.35-1.59L9.65,12l-.79.4C7.65,13.05,7.1,13.62,7.38,14c.17.19.36.18.75-.06ZM16,11.7a.46.46,0,0,0-.08-.8,2.21,2.21,0,0,0-1.15-.15c-.42,0-1.09.11-1.21.14s.37.25.54.35a7.16,7.16,0,0,0,1.13.47.86.86,0,0,0,.77,0Zm-3.17-1.32a9.07,9.07,0,0,1-.68-.88,5,5,0,0,1-.38-.57s-.18.6-.34,1L11,11.06l-.14.27s.73-.24,1.11-.34,1.19-.26,1.19-.26Zm-1-4.1a1.62,1.62,0,0,0-.06-1c-.34-.38-.75-.06-.68.83a5.8,5.8,0,0,0,.19,1.13l.18.57.13-.43a11,11,0,0,0,.24-1.14Z" fill="#ff2116"/><path d="M8.2,16.72h.88a2.14,2.14,0,0,1,.68.08.76.76,0,0,1,.45.35,1.13,1.13,0,0,1,.17.65,1.16,1.16,0,0,1-.14.6.92.92,0,0,1-.39.37,2.07,2.07,0,0,1-.76.11h-.3v1.38H8.2Zm.59.45v1.24h.29a.76.76,0,0,0,.54-.15.63.63,0,0,0,.15-.47.7.7,0,0,0-.1-.4.4.4,0,0,0-.22-.18,1.14,1.14,0,0,0-.37,0Zm2-.45h.8a1.78,1.78,0,0,1,.93.2,1.31,1.31,0,0,1,.52.61,2.19,2.19,0,0,1,.18.9,2.45,2.45,0,0,1-.16.93,1.46,1.46,0,0,1-.49.65,1.49,1.49,0,0,1-.93.25h-.85Zm.59.47v2.6h.25a.84.84,0,0,0,.74-.35,1.76,1.76,0,0,0,.23-1c0-.87-.32-1.3-1-1.3Zm2.41-.47h2v.47H14.41v1.06h1.11v.47H14.41v1.54h-.58Z" fill="#2c2c2c"/></svg>