<svg id="remove-ui-svgrepo-com" xmlns="http://www.w3.org/2000/svg" width="19.931" height="15" viewBox="0 0 19.931 15">
	<path id="Path_986" data-name="Path 986" d="M24.175,86.715a4.14,4.14,0,0,1,4.949-4.059,4.492,4.492,0,0,0-8.344-3.239,3.173,3.173,0,1,0-2.205,5.5h-.053a3.174,3.174,0,0,1-3.015-2.184,3.37,3.37,0,0,0-1.928,3.046h0a3.37,3.37,0,0,0,3.37,3.37h8.021A4.119,4.119,0,0,1,24.175,86.715Z" transform="translate(-13.049 -76.382)" fill="#a3a3a3"/>
	<g id="Group_2517" data-name="Group 2517">
		<path id="Path_987" data-name="Path 987" d="M18.865,70.7a.529.529,0,0,0-.815.673A3.61,3.61,0,1,1,11.7,74.215h0c-.008-.053-.015-.108-.021-.162,0-.014,0-.028,0-.041,0-.043-.007-.086-.01-.129,0-.015,0-.031,0-.046,0-.056,0-.113,0-.169a3.612,3.612,0,0,1,4.317-3.54.528.528,0,0,0,.61-.371,5.021,5.021,0,0,0-9.008-4.173,3.7,3.7,0,0,0-5.7,3.118,3.745,3.745,0,0,0,.06.667A3.9,3.9,0,0,0,3.9,76.632h7.765a4.666,4.666,0,1,0,7.2-5.935ZM11,75.575H3.9A2.841,2.841,0,0,1,2.21,70.449,3.693,3.693,0,0,0,5.472,72.4h.061a.529.529,0,0,0,0-1.057,2.644,2.644,0,1,1,1.838-4.586A.529.529,0,0,0,8.2,66.6a3.964,3.964,0,0,1,7.464,2.414C15.533,69,15.4,69,15.264,69A4.672,4.672,0,0,0,10.6,73.666q0,.061,0,.122c0,.023,0,.047,0,.07s0,.033,0,.05c0,.033,0,.065.006.1,0,.007,0,.013,0,.02A4.617,4.617,0,0,0,11,75.575Z" transform="translate(0 -63.333)" fill="#a3a3a3"/>
		<path id="Path_988" data-name="Path 988" d="M341.019,316.255h-3.212a.529.529,0,0,1,0-1.057h3.212a.529.529,0,0,1,0,1.057Z" transform="translate(-324.15 -305.394)" fill="#a3a3a3"/>
	</g>
</svg>
