<svg xmlns="http://www.w3.org/2000/svg" xmlns:xlink="http://www.w3.org/1999/xlink"
	 viewBox="0 0 24 24">
    <g>
        <path d="M3.89,7.66C4.29,7.9,4.81,7.79,5.08,7.4C5.29,7.1,5.5,6.8,5.75,6.51c0.3-0.35,0.27-0.88-0.09-1.19
            S4.78,5.06,4.48,5.41l0,0c-0.31,0.35-0.59,0.72-0.85,1.1C3.39,6.9,3.5,7.41,3.89,7.66z"/>
        <path d="M12.17,3.66c0.81,0,1.61,0.13,2.38,0.38c0.43,0.12,0.89-0.1,1.07-0.51c0.14-0.45-0.11-0.92-0.55-1.07
            c-0.92-0.3-1.88-0.46-2.85-0.47c-0.45-0.02-0.83,0.33-0.85,0.79c0,0.01,0,0.02,0,0.02c-0.02,0.45,0.33,0.83,0.77,0.85
            C12.15,3.66,12.16,3.66,12.17,3.66z"/>
        <path d="M19.74,8.84c0.29,0.72,0.47,1.48,0.55,2.25c0,0,0.05,0.95,0.93,0.81c0.47-0.04,0.81-0.46,0.77-0.93
            c0-0.02,0-0.03-0.01-0.05c-0.1-0.93-0.32-1.85-0.68-2.72c-0.19-0.43-0.69-0.62-1.12-0.43C19.78,7.96,19.59,8.42,19.74,8.84
            L19.74,8.84z"/>
        <path d="M16.68,5.11c0.67,0.46,1.28,1.02,1.79,1.66c0.29,0.34,0.79,0.4,1.15,0.13c0.35-0.3,0.41-0.82,0.13-1.19
            c-0.62-0.75-1.33-1.4-2.12-1.96c-0.37-0.26-0.89-0.17-1.15,0.2C16.21,4.33,16.3,4.84,16.68,5.11C16.68,5.11,16.69,5.11,16.68,5.11
            L16.68,5.11z"/>
        <path d="M7.5,4.97C8.19,4.55,8.93,4.22,9.71,4c0.45-0.1,0.73-0.55,0.63-1c-0.1-0.45-0.55-0.73-1-0.63
            c-0.02,0-0.04,0.01-0.06,0.02C8.36,2.63,7.47,3.02,6.65,3.53C6.27,3.77,6.15,4.28,6.4,4.67c0,0,0,0.01,0,0.01
            C6.64,5.04,7.11,5.17,7.5,4.97z"/>
        <path d="M21.14,12.97c-0.41-0.12-0.84,0.13-0.96,0.54c-0.01,0.03-0.02,0.07-0.02,0.1c-0.09,0.38-0.35,1.28-0.35,1.36
            c-1.66,4.31-6.49,6.45-10.79,4.8c-1.56-0.6-2.9-1.65-3.86-3.02l1.57,0.35c0.44,0.11,0.89-0.16,1-0.61c0.11-0.44-0.16-0.89-0.61-1
            c-0.02,0-0.03-0.01-0.05-0.01l-3.31-0.72c-0.45-0.09-0.9,0.19-1.02,0.64l-0.72,3.36c-0.1,0.44,0.19,0.88,0.63,0.98c0,0,0,0,0.01,0
            c0.46,0.06,0.9-0.23,1.02-0.68l0.25-1.15c3.27,4.47,9.55,5.44,14.01,2.17c1.64-1.2,2.88-2.87,3.54-4.79c0.04-0.11,0.23-1,0.3-1.32
            c0.12-0.41-0.13-0.84-0.54-0.96C21.21,12.98,21.18,12.97,21.14,12.97z"/>
        <path d="M8.73,12.84h3.92c0.46-0.02,0.83-0.39,0.85-0.85V6.18c0.02-0.47-0.35-0.86-0.82-0.88
            c-0.47-0.02-0.86,0.35-0.88,0.82c0,0.02,0,0.05,0,0.07v4.96H8.73c-0.47,0.02-0.83,0.41-0.82,0.88C7.93,12.47,8.29,12.82,8.73,12.84
            L8.73,12.84z"/>
    </g>
</svg>
