<svg xmlns="http://www.w3.org/2000/svg" viewBox="0 0 24.5 24">
  <g transform="translate(0 -50.223)">
    <path d="M27.691,141.54a4.6,4.6,0,0,1,.075-.821H13.246v2.137L22.81,150.9l6.746-5.672A4.567,4.567,0,0,1,27.691,141.54Z" transform="translate(-12.602 -86.098)" fill="#a8c8ff"/>
    <g transform="translate(0 50.223)">
      <path d="M17,59.928a5.217,5.217,0,1,0-2.346-5.95H.644A.644.644,0,0,0,0,54.621V69.579a.644.644,0,0,0,.644.644H19.771a.644.644,0,0,0,.644-.644V62.934a.644.644,0,0,0-1.287,0v5.087l-5.876-4.94Zm2.662-8.417a3.931,3.931,0,1,1-2.614,6.864l-.035-.031c-.032-.03-.064-.06-.1-.091l-.062-.061-.075-.079q-.043-.047-.085-.1l-.048-.055a3.961,3.961,0,0,1-.855-1.827v-.007c-.012-.068-.022-.136-.031-.2,0-.011,0-.022,0-.033-.007-.061-.012-.122-.017-.184,0-.015,0-.029,0-.044,0-.074-.007-.148-.007-.222s0-.123,0-.184c0-.042.005-.084.009-.126,0-.017,0-.034,0-.05q.007-.078.018-.157l0-.018c.007-.054.016-.107.026-.161A3.937,3.937,0,0,1,19.663,51.51Zm-5.219,3.931q0,.13.007.26a5.191,5.191,0,0,0,1.127,2.982l.052.066.058.067c.088.1.179.206.275.3l-5.755,4.839-8.92-7.5V55.265h13.16Q14.445,55.353,14.445,55.441ZM1.287,58.14l5.876,4.94-5.876,4.94Zm16.927,10.8H2.2l5.964-5.014,1.629,1.37a.644.644,0,0,0,.828,0l1.629-1.37Z" transform="translate(0 -50.223)" fill="#2a5298"/>
      <path d="M354.265,109.729h1.191v1.191a.644.644,0,1,0,1.287,0v-1.191h1.191a.644.644,0,0,0,0-1.287h-1.191v-1.191a.644.644,0,1,0-1.287,0v1.191h-1.191a.644.644,0,0,0,0,1.287Z" transform="translate(-336.436 -103.867)" fill="#2a5298"/>
    </g>
  </g>
</svg>