<svg xmlns="http://www.w3.org/2000/svg" width="15" height="17.5" viewBox="0 0 15 17.5">
  	<path id="Icon_ionic-ios-git-pull-request" data-name="Icon ionic-ios-git-pull-request" d="M17.352,14.344v-5.3A6.977,6.977,0,0,0,16.984,6.5,2.719,2.719,0,0,0,14.266,4.75H11.23l1.551-1.57a.552.552,0,0,0,0-.773l0,0a.565.565,0,0,0-.383-.152.528.528,0,0,0-.387.16L9.867,4.543A2.737,2.737,0,1,0,6.648,7.969v6.379a2.72,2.72,0,1,0,1.094-.02V7.984A2.731,2.731,0,0,0,9.879,5.992l2.2,2.2a.543.543,0,0,0,.387.16.534.534,0,0,0,.387-.16.543.543,0,0,0,.16-.387.534.534,0,0,0-.16-.387l0,0L11.246,5.844h3.02a1.628,1.628,0,0,1,1.625.918,5.571,5.571,0,0,1,.367,2.285v5.281a2.733,2.733,0,1,0,1.094.016ZM8.875,17.016a1.641,1.641,0,1,1-1.641-1.641A1.64,1.64,0,0,1,8.875,17.016ZM7.234,6.938A1.641,1.641,0,1,1,8.875,5.3,1.64,1.64,0,0,1,7.234,6.938Zm9.531,11.719a1.641,1.641,0,1,1,1.641-1.641A1.64,1.64,0,0,1,16.766,18.656Z" transform="translate(-4.5 -2.25)" fill="#fff"/>
</svg>
