<svg xmlns="http://www.w3.org/2000/svg" width="20.163" height="18.007" viewBox="0 0 20.163 18.007">
	<g transform="translate(-1.995 -2.997)">
		<g>
			<path d="M15.25,13A1.75,1.75,0,0,1,17,14.75v4.5A1.75,1.75,0,0,1,15.25,21H3.75A1.75,1.75,0,0,1,2,19.253v-4.5A1.75,1.75,0,0,1,3.75,13ZM21,14.9V20.25a.75.75,0,0,1-1.493.1l-.007-.1V14.906A3.023,3.023,0,0,0,21,14.9Zm-.75-4.8A1.908,1.908,0,1,1,18.342,12,1.908,1.908,0,0,1,20.25,10.092Zm-5-7.1A1.75,1.75,0,0,1,17,4.747v4.5A1.75,1.75,0,0,1,15.245,11H3.745A1.75,1.75,0,0,1,2,9.25v-4.5A1.75,1.75,0,0,1,3.6,3L3.745,3ZM20.25,3a.75.75,0,0,1,.743.648l.007.1V9.1a3.023,3.023,0,0,0-1.5-.011V3.75A.75.75,0,0,1,20.25,3Z" fill="#212121"/>
		</g>
	</g>
</svg>
