<svg xmlns="http://www.w3.org/2000/svg" width="21.084" height="18" viewBox="0 0 21.084 18">
	<g id="upload-svgrepo-com" transform="translate(0 -21.719)">
		<g id="Group_2587" data-name="Group 2587" transform="translate(0 21.719)">
			<path id="Path_1036" data-name="Path 1036" d="M15.782,24.339a5.294,5.294,0,0,0-.908.079,5.958,5.958,0,0,0-10.6,1.246,4.647,4.647,0,0,0,.369,9.28H7.458V39a.717.717,0,0,0,.717.717h4.733A.717.717,0,0,0,13.625,39V34.943h2.156a5.3,5.3,0,0,0,0-10.6Zm-2.873,6.846a.717.717,0,0,0-.717.717v6.382h-3.3V31.9a.717.717,0,0,0-.717-.717H7.54l3-3,3,3Zm2.873,2.324H13.626v-.889h1.649a.717.717,0,0,0,.507-1.224l-4.733-4.733a.717.717,0,0,0-1.014,0L5.3,31.4a.717.717,0,0,0,.507,1.224H7.458v.889H4.647a3.213,3.213,0,0,1,0-6.426c.045,0,.09,0,.135,0a.715.715,0,0,0,.724-.538,4.524,4.524,0,0,1,8.382-.981.717.717,0,0,0,.831.355,3.868,3.868,0,1,1,1.063,7.586Z" transform="translate(0 -21.719)" fill="#fff"/>
		</g>
	</g>
</svg>
