<svg xmlns="http://www.w3.org/2000/svg" width="21.429" height="15" viewBox="0 0 21.429 15">
  	<path id="Icon_awesome-cloud-upload-alt" data-name="Icon awesome-cloud-upload-alt" d="M18,8.766a3.218,3.218,0,0,0-3-4.373,3.2,3.2,0,0,0-1.785.542,5.358,5.358,0,0,0-10,2.672c0,.09,0,.181.007.271a4.823,4.823,0,0,0,1.6,9.372H17.143A4.285,4.285,0,0,0,18,8.766Zm-4.828,2.056h-2.19v3.75a.537.537,0,0,1-.536.536H8.839a.537.537,0,0,1-.536-.536v-3.75H6.114a.535.535,0,0,1-.378-.914L9.265,6.378a.538.538,0,0,1,.757,0L13.55,9.907a.535.535,0,0,1-.378.914Z" transform="translate(0 -2.25)" fill="#fff"/>
</svg>
