<svg width="120" height="120" xmlns="http://www.w3.org/2000/svg" xmlns:xlink="http://www.w3.org/1999/xlink" viewBox="0 0 120 120">
    <defs>
        <linearGradient id="linear-gradient" x1="47.5" y1="74.71" x2="47.5" y2="73.24" gradientTransform="matrix(48, 0, 0, -17.68, -2220, 1392.54)" gradientUnits="userSpaceOnUse">
            <stop offset="0" stop-color="#2a5298"/>
            <stop offset="1" stop-color="#8e2de2"/>
        </linearGradient>
    </defs>
    <g>
        <rect width="120" height="120" rx="10" fill="#d1d1d1"/>
        <g>
            <path d="M84,85.89v3.16H36V85.89s.11-6.9,12-10.73c0,0,4.3-2.25,5.68-3.79,0,0,2.6,3.16,6.32,3.16s6.31-3.16,6.31-3.16C67.69,72.91,72,75.16,72,75.16,84,79,84,85.89,84,85.89Z" fill="url(#linear-gradient)"/>
            <path d="M53.68,67.35a14.13,14.13,0,0,0,12.63,0v4s-2.6,3.16-6.31,3.16-6.32-3.16-6.32-3.16Z" fill="#fedaab"/>
            <path d="M56.84,41.68c-5.68,5.69-10.73,5.69-10.73,5.69v-.63S45.45,31,60,31,73.89,46.74,73.89,46.74C65.05,46.74,56.84,41.68,56.84,41.68Z" fill="#a67c52"/>
            <path d="M66.31,67.35a14.13,14.13,0,0,1-12.63,0,14.56,14.56,0,0,1-7.4-11.19c-2-.27-4-2.12-4-3.74S44,49.89,46.1,49.89V47.37s5.06,0,10.74-5.68c0,0,8.21,5.05,17,5.05V49.9c2.1,0,3.79.78,3.79,2.52s-2,3.48-4,3.74A14.53,14.53,0,0,1,66.31,67.35Z" fill="#fedaab"/>
            <path d="M72.37,74.28a30,30,0,0,1-5.1-3.3V67.91a15.4,15.4,0,0,0,7.29-11c2.18-.62,4.07-2.66,4.07-4.53S77.21,49.26,74.84,49V46.75c0-.53.19-7.92-4.45-12.75-2.55-2.65-6-4-10.39-4s-7.86,1.35-10.41,4c-4.63,4.82-4.45,12.2-4.43,12.75V49c-2.37.26-3.79,1.52-3.79,3.42s1.9,3.91,4.07,4.53a15.38,15.38,0,0,0,7.3,11V71a29.83,29.83,0,0,1-5.1,3.3c-12.31,4-12.58,11.29-12.58,11.6V90H85V85.89C85,85.58,84.76,78.24,72.37,74.28ZM54.64,68.82a15.3,15.3,0,0,0,10.73,0V71A8,8,0,0,1,60,73.58,8,8,0,0,1,54.64,71ZM51,35.32c2.18-2.27,5.22-3.42,9-3.42s6.84,1.15,9,3.41c3.25,3.37,3.83,8.4,3.92,10.46-8.09-.35-15.51-4.85-15.59-4.89l-.64-.4-.53.53c-3.89,3.89-7.47,5-9.12,5.29C47.07,44.75,47.39,39,51,35.32ZM47.22,56l-.1-.71-.71-.1c-1.37-.19-3.15-1.58-3.15-2.8,0-1.47,2.18-1.58,2.84-1.58h.95V48.23c1.74-.26,5.64-1.29,9.94-5.36,2,1.15,8.65,4.52,15.95,4.8v3.17h1c.67,0,2.84.12,2.84,1.58,0,1.22-1.77,2.61-3.14,2.8l-.72.1-.1.71a13.51,13.51,0,0,1-6.9,10.48,13.11,13.11,0,0,1-11.75,0A13.55,13.55,0,0,1,47.22,56ZM83.05,88.1H37V85.91a7.4,7.4,0,0,1,1.46-3.54c2.38-3.35,6.68-5.28,9.88-6.31l.08,0,.07,0a35.77,35.77,0,0,0,5.21-3.3A9.6,9.6,0,0,0,60,75.47a9.6,9.6,0,0,0,6.35-2.77A35.24,35.24,0,0,0,71.56,76l.07,0,.08,0c3.22,1,7.54,2.94,9.9,6.3a7.18,7.18,0,0,1,1.44,3.54Z" fill="#231f20"/>
        </g>
    </g>
</svg>