<svg xmlns="http://www.w3.org/2000/svg" width="374.28" height="247.025" viewBox="0 0 374.28 247.025">
  <g id="internet-offline" transform="translate(-45.509 -117.337)">
    <g transform="translate(45.509 117.337)">
      <path d="M55,364.616h337.89s53.582-77.242,9.493-129.682-94.164-32.2-156.76-99.548c-35.208-37.873-139.936-11.742-115.363,72.2C145.395,259.267,9.1,301.2,55,364.616Z" transform="translate(-45.509 -118.414)" fill="#cce9ff" opacity="0.5"/>
    </g>
    <g transform="translate(76.173 137.106)">
      <g transform="translate(17.942 172.798)">
        <path d="M103.721,389.88h65.66A3.322,3.322,0,0,1,172.7,393.2h0a3.322,3.322,0,0,1-3.321,3.321h-65.66A3.322,3.322,0,0,1,100.4,393.2h0A3.322,3.322,0,0,1,103.721,389.88Z" transform="translate(-100.4 -342.063)" fill="#8fc7f9"/>
        <path d="M113.47,383.7c17.71-1.328,19.233-29.1,19.038-47.817h5.313v51.359Z" transform="translate(-101.896 -335.88)" fill="#8fc7f9"/>
        <path d="M165.321,383.7c-17.71-1.328-19.233-29.1-19.038-47.817H140.97v51.359Z" transform="translate(-105.045 -335.88)" fill="#8fc7f9"/>
      </g>
      <path d="M160.384,227.011S153.3,191.98,128.355,191s-38.971,34.968-46.994,70.92,23.767,76.658,84.9,57.876S199.948,272.818,160.384,227.011Z" transform="translate(-80.138 -146.491)" fill="#0b4870"/>
      <g transform="translate(196.548 171.974)">
        <path d="M371.081,388.95h-65.66a3.322,3.322,0,0,0-3.321,3.321h0a3.322,3.322,0,0,0,3.321,3.321h65.66a3.322,3.322,0,0,0,3.321-3.321h0A3.322,3.322,0,0,0,371.081,388.95Z" transform="translate(-302.1 -341.133)" fill="#8fc7f9"/>
        <path d="M367.521,382.767c-17.71-1.328-19.233-29.1-19.038-47.817H343.17v51.359Z" transform="translate(-306.802 -334.95)" fill="#8fc7f9"/>
        <path d="M315.67,382.767c17.71-1.328,19.233-29.1,19.038-47.817h5.313v51.359Z" transform="translate(-303.654 -334.95)" fill="#8fc7f9"/>
      </g>
      <path d="M309.015,224.453c7.66-25.281,14.2-36.031,32.029-36.013,24.962.027,38.971,34.968,46.994,70.92s-23.767,76.658-84.9,57.876S299.018,257.465,309.015,224.453Z" transform="translate(-102.479 -146.201)" fill="#0b4870"/>
      <g transform="translate(22.015)">
        <path d="M210.626,201.91s1.9,23.422,2.887,34.729-7.447,19.543-12.494,22.625-19.667-10.272-24.342-16.851,14.77-9.3,14.77-9.3l6.216,7.766,7.518-37.714Z" transform="translate(-113.124 -147.743)" fill="#ffe3ca"/>
        <path d="M189.431,232.847s1.771-2.657,2.656,0,0,1.771,1.771,2.656,0,3.542.885,3.542,2.657,1.771,1.771,2.656S177.3,253.01,177.3,253.01l1.505-12.193Z" transform="translate(-113.278 -151.15)" fill="#faca68"/>
        <path d="M134.451,192a184.231,184.231,0,0,1-16.825,8.855c-7.97,3.542-8.1,10.484-8.855,19.481L107,241.588s13.283,5.313,17.71,6.2l2.019,23.909s48.375-1.886,50.571-4.454-6.544-30.966-6.544-30.966l10.626-7.97s-8.855-18.6-12.4-25.68S148.557,192,148.557,192Z" transform="translate(-105.229 -146.608)" fill="#f6a704"/>
        <path d="M149.775,205.436l5.711-2.187-.93-4.861,4.755-2.258-6.225-6.81a20.963,20.963,0,0,0-11.255-1.833c-6.836.62-9.094,2.657-9.094,2.657l-1.018,4.516,5.561,6.677,4.047-.788v4.41Z" transform="translate(-108.059 -146.08)" fill="#faca68"/>
        <path d="M150.53,186.216l2.524,7.066a6.287,6.287,0,0,1-7.084,3.542c-5.313-.885-7.97-6.2-7.97-6.2L138.885,180Z" transform="translate(-108.778 -145.235)" fill="#ffe3ca"/>
        <path d="M138.79,182.49s5.5,7.536,9.041,7.536,2.657-3.542,2.657-3.542v-2.657Z" transform="translate(-108.869 -145.52)" fill="#fab9af"/>
        <path d="M128.04,154.31l5.278,19.207,5.313-2.657Z" transform="translate(-107.638 -142.293)" fill="#0b4870"/>
        <path d="M157.227,156.948s6.2,20.367-5.313,24.794-18.6-8.855-18.6-8.855-7.8-7.252-4.428-10.626c1.771-1.771,3.542.885,3.542.885s-2.657-8.855,6.2-12.4S154.57,148.093,157.227,156.948Z" transform="translate(-107.639 -141.663)" fill="#ffe3ca"/>
        <path d="M135.4,166.355s-2.656-9.741,2.657-11.512,17.32-2.683,17.32-2.683-5.818-7.137-12.893-6.172c-19.481,2.657-8.855,19.481-8.855,19.481Z" transform="translate(-107.946 -141.33)" fill="#8fc7f9"/>
        <path d="M131.539,161.337s.885-6.2,6.2-7.084,13.283-1.771,18.6-2.657-2.541-12.636-15.939-10.626C122.684,143.627,128.076,156.422,131.539,161.337Z" transform="translate(-107.63 -140.739)" fill="#0b4870"/>
        <rect width="11.423" height="23.289" transform="translate(86.331 32.651) rotate(14.916)" fill="#2a94f4"/>
        <path d="M106.771,248h18.6a1.939,1.939,0,0,1,.886,2.657c-.886,1.771,0,2.656,0,3.542a20.088,20.088,0,0,1-.886,3.542h-18.6S105,255.97,105,255.084s1.222-2.9.832-3.639S104.548,248,106.771,248Z" transform="translate(-105 -153.02)" fill="#faca68"/>
        <path d="M140.46,195.31l10.316,11L153.335,195Z" transform="translate(-109.06 -146.952)" fill="#ffe3ca"/>
        <path d="M125.859,259l.035,2.922s22.226,4.348,30.851,4.242,7.562-2.559,11.184-3.577,5.127.336,7.385,2.444,3.161,7.252,1.054,7.252H111.709L109.3,259Z" transform="translate(-105.492 -154.28)" fill="#ffe3ca"/>
        <path d="M214.045,197.521c1.284-4.746.6-8.058-1.656-8.7s-5.278-1.886-7.837-1.381.753,3.374.753,3.374-2.488-1.284-2.258,0A9.741,9.741,0,0,0,205,194.049s-2.338-2.665-3.312-1.629,3.462,4.569,4.675,6.606,5.2,6.7,6.331,3.923A21.4,21.4,0,0,0,214.045,197.521Z" transform="translate(-116.055 -146.072)" fill="#ffe3ca"/>
        <g transform="translate(13.82 128.863)">
          <path d="M189.48,288.206a.739.739,0,0,1,.071-.106A.739.739,0,0,0,189.48,288.206Z" transform="translate(-128.493 -286.475)" fill="#f6a704"/>
          <path d="M189.3,288.477c.053-.089.106-.168.159-.257C189.406,288.309,189.353,288.4,189.3,288.477Z" transform="translate(-128.473 -286.489)" fill="#f6a704"/>
          <path d="M134.184,293.631c14.469-.151,43.638.832,46.985-4.631H120.619S119.715,293.782,134.184,293.631Z" transform="translate(-120.607 -286.578)" fill="#f6a704"/>
          <path d="M189.03,288.9c.044-.071.124-.2.239-.39C189.2,288.634,189.119,288.758,189.03,288.9Z" transform="translate(-128.442 -286.522)" fill="#f6a704"/>
          <path d="M189.55,288.027c.133-.213.248-.4.345-.567C189.78,287.655,189.665,287.841,189.55,288.027Z" transform="translate(-128.501 -286.402)" fill="#f6a704"/>
          <path d="M189,288.994c.009-.018.018-.027.027-.044A.458.458,0,0,0,189,288.994Z" transform="translate(-128.438 -286.572)" fill="#f6a704"/>
          <path d="M190.63,286.333a.524.524,0,0,1,.035-.053A.521.521,0,0,0,190.63,286.333Z" transform="translate(-128.625 -286.267)" fill="#f6a704"/>
          <path d="M189.94,287.429c.053-.08.1-.159.142-.239A2.4,2.4,0,0,1,189.94,287.429Z" transform="translate(-128.546 -286.371)" fill="#f6a704"/>
          <path d="M190.67,286.278Z" transform="translate(-128.629 -286.265)" fill="#f6a704"/>
          <path d="M190.11,287.1c.195-.319.328-.531.407-.664C190.42,286.6,190.278,286.839,190.11,287.1Z" transform="translate(-128.565 -286.285)" fill="#f6a704"/>
          <path d="M190.57,286.439a.567.567,0,0,0,.053-.089A.386.386,0,0,0,190.57,286.439Z" transform="translate(-128.618 -286.275)" fill="#f6a704"/>
        </g>
        <path d="M210.682,283.959s16.329-3.126,16.931,6.73-32.064,76.472-32.064,76.472H181l16.178-62.4Z" transform="translate(-113.702 -157.084)" fill="#2a94f4"/>
        <path d="M124.112,291.546s56.07-9.679,66.448-9.546,7.846,12.193,3.082,28.921-24.5,56.07-24.5,56.07H148.8l18.534-53.05s-25.405,1.957-36.589-4.826S124.112,291.546,124.112,291.546Z" transform="translate(-107.083 -156.913)" fill="#2a94f4"/>
        <path d="M167.633,377.98l-2.417,3.914H152.11l1.806-3.914Z" transform="translate(-110.394 -167.903)" fill="#ffe3ca"/>
        <path d="M163.538,382.4H166.7s2.258,4.525,6.933,4.525,10.095-.753,11.228,2.71a17.984,17.984,0,0,1,.983,6.03H145.19l5.242-13.265h13.105Z" transform="translate(-109.602 -168.409)" fill="#0b4870"/>
        <path d="M195.463,377.98l-2.417,3.914H179.94l1.806-3.914Z" transform="translate(-113.58 -167.903)" fill="#ffe3ca"/>
        <path d="M191.368,382.4h3.161s2.258,4.525,6.933,4.525,10.095-.753,11.228,2.71a17.985,17.985,0,0,1,.983,6.03H173.02l5.242-13.265h13.105Z" transform="translate(-112.788 -168.409)" fill="#0b4870"/>
      </g>
      <g transform="translate(157.875 6.64)">
        <g transform="translate(0 161.597)">
          <path d="M281.794,330.73s.434,3.719,1,9.794c.753,8.032-2.108,29.4-2.108,29.4l-6.553,1.133L268.14,330.73Z" transform="translate(-259.539 -330.73)" fill="#ffe3ca"/>
          <path d="M265.664,386.389a7.791,7.791,0,0,1-2.09,1.337c-2.9,1.151-7.438,3.011-3.79,6.278h10.679L277.3,386.4,278.318,394h1.24a70.107,70.107,0,0,0,.567-11.193c-.337-4.242-.567-7.8-.567-7.8l-5.712,3.9-2.772,7.013Z" transform="translate(-258.427 -335.8)" fill="#2a94f4"/>
          <path d="M273.359,374.21s.221,5.685-7.863,12.831c-4.171,3.684.275,3.206,5.3,1.78s9.386-13.911,9.386-13.911Z" transform="translate(-259.047 -335.708)" fill="#ffe3ca"/>
        </g>
        <path d="M326.686,186.431s3.427,3.976,1.355,5.57-.638,4.551,1.257,5.154-4.481,3.427-3.356,5.216,6.712,1.948,4.746,4.684c0,0,3.967-3.028,1.842-4.569s.151-4.888.788-6.517-4.011-1.08-2.869-2.78,2.727-6.5,1.257-7.58S326.686,186.431,326.686,186.431Z" transform="translate(-266.142 -152.479)" fill="#2a94f4"/>
        <g transform="translate(24.162 46.916)">
          <path d="M327.964,201.22s12.149,46.338,8.51,49.827-32.6,11.122-32.6,11.122l1-5.393c18.7-11.255,15.018-9.032,18.02-10.847,3.356-2.019,5.056-.93,5.056-.93s-6.11-18.179-6.783-28.841S327.964,201.22,327.964,201.22Z" transform="translate(-287.792 -201.22)" fill="#ffe3ca"/>
          <path d="M298.369,264.82s-5.189,2.577-3.436,3.135,5.3-1.559,5.3-1.559Z" transform="translate(-286.727 -208.502)" fill="#fab9af"/>
          <path d="M302.783,263.233s-7.686-3.657-9.67-3.693-8.607,4.188-7.208,5.357,6.181-1.8,8.076-.1,5.41,4.914,6.9,4.357C304.164,267.943,302.783,263.233,302.783,263.233Z" transform="translate(-285.713 -207.898)" fill="#ffe3ca"/>
          <path d="M297.189,262.84s-5.773,2.887-6.845,3.693.576,1.311,1.355.992,2.639-1.939,5.145-.8S297.189,262.84,297.189,262.84Z" transform="translate(-286.203 -208.275)" fill="#ffe3ca"/>
        </g>
        <path d="M322.279,180.29s2.444,7.571-1.231,10.29,4.64,3.524.9,6.659-2.9,6.048.354,6.774c0,0-4-2.116,1.275-4.9,3.923-2.063,2.719-4.906,1.187-5.729-2.851-1.532,2.869-5.366,2.869-5.366Z" transform="translate(-265.418 -151.908)" fill="#2a94f4"/>
        <path d="M328.37,149.329s13.017-4.481,20.393,4.72,2.01,17.621,6.508,18.693,8.412,1.6,6.384,5.986,6.88,1.417,6.287,6.039-8.811,8.262-4.95,8.607-12.45,9.563-12.45,9.563l-10.971-18.914Z" transform="translate(-266.435 -148.238)" fill="#2a94f4"/>
        <path d="M329.845,252.43l-3.285,15.346,34.774-4.374-3.515-11.361Z" transform="translate(-266.228 -160.123)" fill="#ffe3ca"/>
        <path d="M350.944,194.96a76.36,76.36,0,0,1,9.873,4.764s4.507,12.689-1.231,31.09c-2.7,8.66,4.242,31.365,5.4,34.951.452,1.39-40.928-.806-40.928-.806s6.641-30.771,3.25-38.307-3.507-10.635.664-20.65l2.285-5.49,7.66-3.347Z" transform="translate(-265.941 -153.588)" fill="#f8b936"/>
        <g transform="translate(66.256 27.284)">
          <path d="M333.25,180.75l9.829-1.7,8.731,14.195-9,10.626-4.737-8.43Z" transform="translate(-333.25 -179.05)" fill="#ffe3ca"/>
        </g>
        <path d="M337.394,193.359c.965.549,7-1.461,9.006-8.926l-3.321-5.393-9.829,1.709Z" transform="translate(-266.994 -151.765)" fill="#fab9af"/>
        <g transform="translate(53.024 2.377)">
          <path d="M320.382,172.837c-.452-1.718-.992-3.639-1.558-5.561a12.758,12.758,0,0,1,7.792-15.549h0a12.74,12.74,0,0,1,16.532,7.925l2.426,7.288c1.027,2.78.558,7.624-1.266,10.98-3.17,5.844-5.995,8.7-9.147,9.865C329.538,188.784,322.507,180.939,320.382,172.837Z" transform="translate(-318.307 -150.923)" fill="#ffe3ca"/>
        </g>
        <path d="M349.489,164.737c1.877-.186,4.047.593,4.366,3.772s-1.328,7.553-3.206,7.739-3.657-2.231-3.976-5.41S347.612,164.932,349.489,164.737Z" transform="translate(-268.525 -150.124)" fill="#ffe3ca"/>
        <path d="M340.48,167.086s4.923.691,3.108,4.286.345,3.808,1.913,4.463-.593,3.489-.593,3.489,3.648-2.267,2.577-4.277-1.762-3.108-.381-5.676.31-3.861.31-3.861Z" transform="translate(-267.822 -150.216)" fill="#2a94f4"/>
        <g transform="translate(63.296 46.03)">
          <path d="M363.729,200.22S382.5,243.946,379.358,247.9s-30.8,15.425-30.8,15.425l.266-5.472c17.01-13.681,13.654-10.98,16.391-13.185,3.046-2.462,4.879-1.6,4.879-1.6l-10.617-27.654Z" transform="translate(-332.043 -200.22)" fill="#ffe3ca"/>
          <path d="M342.452,266.99s-4.791,3.25-2.984,3.569,5.039-2.258,5.039-2.258Z" transform="translate(-330.955 -207.865)" fill="#fab9af"/>
          <path d="M346.655,264.755s-8.111-2.586-10.077-2.347-7.961,5.313-6.42,6.287,5.88-2.612,8-1.187,6.03,4.135,7.429,3.391C348.665,269.235,346.655,264.755,346.655,264.755Z" transform="translate(-329.907 -207.339)" fill="#ffe3ca"/>
          <path d="M341.052,265.13s-5.331,3.639-6.278,4.578.744,1.222,1.479.8,2.355-2.276,4.994-1.488S341.052,265.13,341.052,265.13Z" transform="translate(-330.432 -207.652)" fill="#ffe3ca"/>
        </g>
        <path d="M349.876,177.275s-1.027,8.457,3.188,10.015,5.481,6.039,4.118,7.5-.469,4.8,2.3,5.154,3.179,3.577,1.319,5.41,1.55,1,3.453-.841-.407-6.145-2.471-6.845.168-3.923.337-7.146-5.632-4.171-5.632-4.171l-3.383-10.892C353.108,175.451,352.01,179.25,349.876,177.275Z" transform="translate(-268.885 -151.355)" fill="#2a94f4"/>
        <path d="M324.884,157.007a15.243,15.243,0,0,0,12.618,8.244l6.933-1.576.39-7.677s-7.748-6.6-11.857-5.853-6.19-.664-6.19-.664-10.245,4.3-12.007,11.042,4.826,11.042,4.826,11.042S316.808,163.878,324.884,157.007Z" transform="translate(-264.844 -148.38)" fill="#2a94f4"/>
        <path d="M358.348,274.806s6.137,21.482-11.839,26.149-42.947-.151-48.552,1.505-3.737,21.775-3.737,21.775H267.858s-6.393-30.435,4.454-36.952S317.428,274,317.428,274Z" transform="translate(-259.292 -162.638)" fill="#2a94f4"/>
        <g transform="translate(16.214 161.597)">
          <path d="M296.1,330.73s.434,3.719,1,9.794c.753,8.032,1.435,29.4,1.435,29.4l-6.553,1.133L282.45,330.73Z" transform="translate(-277.391 -330.73)" fill="#ffe3ca"/>
          <path d="M283.974,386.389a7.791,7.791,0,0,1-2.09,1.337c-2.9,1.151-7.438,3.011-3.79,6.278h10.679l6.836-7.606L296.628,394h1.24a70.107,70.107,0,0,0,.567-11.193c-.336-4.242-.567-7.8-.567-7.8l-5.711,3.9-2.772,7.013Z" transform="translate(-276.737 -335.8)" fill="#2a94f4"/>
          <path d="M291.68,374.21s.221,5.685-7.863,12.831c-4.171,3.684.275,3.206,5.3,1.78s9.386-13.911,9.386-13.911Z" transform="translate(-277.358 -335.708)" fill="#ffe3ca"/>
        </g>
      </g>
      <g transform="translate(148.864 88.02)">
        <path d="M303.957,270.123H260.3l-11.7-24.768a3.654,3.654,0,0,1,3.3-5.216h35.571a3.649,3.649,0,0,1,3.3,2.09Z" transform="translate(-248.25 -240.14)" fill="#2a94f4"/>
        <ellipse cx="2.683" cy="4.268" rx="2.683" ry="4.268" transform="translate(22.164 15.138) rotate(-21.819)" fill="#fff"/>
        <path d="M337.015,273.711H308.9V271.48h30.346A2.233,2.233,0,0,1,337.015,273.711Z" transform="translate(-255.195 -243.728)" fill="#2a94f4"/>
      </g>
      <path d="M353.565,195.39s-5.322,16.16-10.936,16.16-3.958-14.239-3.958-14.239" transform="translate(-109.714 -146.997)" fill="none" stroke="#fff" stroke-linecap="round" stroke-miterlimit="10" stroke-width="0.25"/>
      <circle cx="0.868" cy="0.868" r="0.868" transform="translate(232.047 63.686)" fill="#fff"/>
    </g>
    <g transform="translate(78.707 255.109)">
      <g transform="translate(0 0)">
        <path d="M360.6,287.283H89.641A6.644,6.644,0,0,1,83,280.641h0A6.644,6.644,0,0,1,89.641,274H360.6a6.644,6.644,0,0,1,6.641,6.641h0A6.644,6.644,0,0,1,360.6,287.283Z" transform="translate(-83 -274)" fill="#8fc7f9"/>
        <path d="M292.7,288.084c-35.42,2.657-38.457,58.2-38.077,95.634H244V281Z" transform="translate(-101.434 -274.801)" fill="#8fc7f9"/>
        <path d="M189,288.084c35.42,2.657,38.457,58.2,38.077,95.634H237.7V281Z" transform="translate(-95.137 -274.801)" fill="#8fc7f9"/>
      </g>
    </g>
  </g>
</svg>
